<mxfile host="app.diagrams.net" modified="2023-10-03T02:28:06.001Z" agent="Mozilla/5.0 (X11; Ubuntu; Linux x86_64; rv:109.0) Gecko/20100101 Firefox/118.0" etag="Wni2Ea_kRblanufY4v4c" version="22.0.0" type="github">
  <diagram name="Page-1" id="9mDjnk1xl4LSsJzSr6N0">
    <mxGraphModel dx="2854" dy="2226" grid="1" gridSize="10" guides="1" tooltips="1" connect="1" arrows="1" fold="1" page="1" pageScale="1" pageWidth="850" pageHeight="1100" math="0" shadow="0">
      <root>
        <mxCell id="0" />
        <mxCell id="1" parent="0" />
        <mxCell id="q9O66fsoj4CQGOpoVoLm-138" value="" style="rounded=0;whiteSpace=wrap;html=1;fillColor=#f5f5f5;fontColor=#333333;strokeColor=#666666;" parent="1" vertex="1">
          <mxGeometry x="-50" y="-210" width="780" height="280" as="geometry" />
        </mxCell>
        <mxCell id="DiAU9s5X7gYXEooud-6u-108" value="" style="group" parent="1" vertex="1" connectable="0">
          <mxGeometry x="240" y="100" width="200" height="420" as="geometry" />
        </mxCell>
        <mxCell id="DiAU9s5X7gYXEooud-6u-1" value="&lt;div&gt;STM32F411CUE6&lt;/div&gt;&lt;div&gt;Black Pill&lt;br&gt;&lt;/div&gt;" style="rounded=0;whiteSpace=wrap;html=1;fillColor=#dae8fc;strokeColor=#6c8ebf;" parent="DiAU9s5X7gYXEooud-6u-108" vertex="1">
          <mxGeometry width="200" height="420" as="geometry" />
        </mxCell>
        <mxCell id="DiAU9s5X7gYXEooud-6u-2" value="PB12" style="rounded=0;whiteSpace=wrap;html=1;fillColor=#dae8fc;strokeColor=#6c8ebf;" parent="DiAU9s5X7gYXEooud-6u-108" vertex="1">
          <mxGeometry width="40" height="20" as="geometry" />
        </mxCell>
        <mxCell id="DiAU9s5X7gYXEooud-6u-4" value="PB13" style="rounded=0;whiteSpace=wrap;html=1;fillColor=#dae8fc;strokeColor=#6c8ebf;" parent="DiAU9s5X7gYXEooud-6u-108" vertex="1">
          <mxGeometry y="20" width="40" height="20" as="geometry" />
        </mxCell>
        <mxCell id="DYfATxnQDK458sTT8Pim-139" style="edgeStyle=orthogonalEdgeStyle;rounded=0;orthogonalLoop=1;jettySize=auto;html=1;exitX=0;exitY=0.5;exitDx=0;exitDy=0;" edge="1" parent="DiAU9s5X7gYXEooud-6u-108" source="DiAU9s5X7gYXEooud-6u-7">
          <mxGeometry relative="1" as="geometry">
            <mxPoint x="-160" y="90" as="targetPoint" />
            <mxPoint x="-54.99999999999977" y="79.48" as="sourcePoint" />
            <Array as="points">
              <mxPoint x="-150" y="90" />
              <mxPoint x="-150" y="90" />
            </Array>
          </mxGeometry>
        </mxCell>
        <mxCell id="DYfATxnQDK458sTT8Pim-140" value="Motor Enable Relay" style="edgeLabel;html=1;align=center;verticalAlign=middle;resizable=0;points=[];" vertex="1" connectable="0" parent="DYfATxnQDK458sTT8Pim-139">
          <mxGeometry x="0.4258" y="2" relative="1" as="geometry">
            <mxPoint x="51" y="-4" as="offset" />
          </mxGeometry>
        </mxCell>
        <mxCell id="DiAU9s5X7gYXEooud-6u-5" value="PB14" style="rounded=0;whiteSpace=wrap;html=1;fillColor=#dae8fc;strokeColor=#6c8ebf;" parent="DiAU9s5X7gYXEooud-6u-108" vertex="1">
          <mxGeometry y="40" width="40" height="20" as="geometry" />
        </mxCell>
        <mxCell id="DiAU9s5X7gYXEooud-6u-6" value="PB15" style="rounded=0;whiteSpace=wrap;html=1;fillColor=#dae8fc;strokeColor=#6c8ebf;" parent="DiAU9s5X7gYXEooud-6u-108" vertex="1">
          <mxGeometry y="60" width="40" height="20" as="geometry" />
        </mxCell>
        <mxCell id="DiAU9s5X7gYXEooud-6u-7" value="PA8" style="rounded=0;whiteSpace=wrap;html=1;fillColor=#dae8fc;strokeColor=#6c8ebf;" parent="DiAU9s5X7gYXEooud-6u-108" vertex="1">
          <mxGeometry y="80" width="40" height="20" as="geometry" />
        </mxCell>
        <mxCell id="DYfATxnQDK458sTT8Pim-134" style="edgeStyle=orthogonalEdgeStyle;rounded=0;orthogonalLoop=1;jettySize=auto;html=1;exitX=0;exitY=0.5;exitDx=0;exitDy=0;" edge="1" parent="DiAU9s5X7gYXEooud-6u-108" source="DiAU9s5X7gYXEooud-6u-8">
          <mxGeometry relative="1" as="geometry">
            <mxPoint x="-120" y="110" as="targetPoint" />
          </mxGeometry>
        </mxCell>
        <mxCell id="DYfATxnQDK458sTT8Pim-136" value="USART1_TX" style="edgeLabel;html=1;align=center;verticalAlign=middle;resizable=0;points=[];" vertex="1" connectable="0" parent="DYfATxnQDK458sTT8Pim-134">
          <mxGeometry x="0.2477" y="1" relative="1" as="geometry">
            <mxPoint x="20" y="-1" as="offset" />
          </mxGeometry>
        </mxCell>
        <mxCell id="DiAU9s5X7gYXEooud-6u-8" value="PA9" style="rounded=0;whiteSpace=wrap;html=1;fillColor=#dae8fc;strokeColor=#6c8ebf;" parent="DiAU9s5X7gYXEooud-6u-108" vertex="1">
          <mxGeometry y="100" width="40" height="20" as="geometry" />
        </mxCell>
        <mxCell id="DYfATxnQDK458sTT8Pim-135" style="edgeStyle=orthogonalEdgeStyle;rounded=0;orthogonalLoop=1;jettySize=auto;html=1;exitX=0;exitY=0.5;exitDx=0;exitDy=0;" edge="1" parent="DiAU9s5X7gYXEooud-6u-108" source="DiAU9s5X7gYXEooud-6u-9">
          <mxGeometry relative="1" as="geometry">
            <mxPoint x="-120" y="130.33333333333348" as="targetPoint" />
          </mxGeometry>
        </mxCell>
        <mxCell id="DYfATxnQDK458sTT8Pim-138" value="USART1_RX" style="edgeLabel;html=1;align=center;verticalAlign=middle;resizable=0;points=[];" vertex="1" connectable="0" parent="DYfATxnQDK458sTT8Pim-135">
          <mxGeometry x="-0.117" relative="1" as="geometry">
            <mxPoint as="offset" />
          </mxGeometry>
        </mxCell>
        <mxCell id="DiAU9s5X7gYXEooud-6u-9" value="PA10" style="rounded=0;whiteSpace=wrap;html=1;fillColor=#dae8fc;strokeColor=#6c8ebf;" parent="DiAU9s5X7gYXEooud-6u-108" vertex="1">
          <mxGeometry y="120" width="40" height="20" as="geometry" />
        </mxCell>
        <mxCell id="DiAU9s5X7gYXEooud-6u-10" value="PA11" style="rounded=0;whiteSpace=wrap;html=1;fillColor=#dae8fc;strokeColor=#6c8ebf;" parent="DiAU9s5X7gYXEooud-6u-108" vertex="1">
          <mxGeometry y="140" width="40" height="20" as="geometry" />
        </mxCell>
        <mxCell id="DiAU9s5X7gYXEooud-6u-11" value="PA12" style="rounded=0;whiteSpace=wrap;html=1;fillColor=#dae8fc;strokeColor=#6c8ebf;" parent="DiAU9s5X7gYXEooud-6u-108" vertex="1">
          <mxGeometry y="160" width="40" height="20" as="geometry" />
        </mxCell>
        <mxCell id="DiAU9s5X7gYXEooud-6u-12" value="PA15" style="rounded=0;whiteSpace=wrap;html=1;fillColor=#dae8fc;strokeColor=#6c8ebf;" parent="DiAU9s5X7gYXEooud-6u-108" vertex="1">
          <mxGeometry y="180" width="40" height="20" as="geometry" />
        </mxCell>
        <mxCell id="DiAU9s5X7gYXEooud-6u-13" value="PB3" style="rounded=0;whiteSpace=wrap;html=1;fillColor=#dae8fc;strokeColor=#6c8ebf;" parent="DiAU9s5X7gYXEooud-6u-108" vertex="1">
          <mxGeometry y="200" width="40" height="20" as="geometry" />
        </mxCell>
        <mxCell id="DiAU9s5X7gYXEooud-6u-14" value="PB4" style="rounded=0;whiteSpace=wrap;html=1;fillColor=#dae8fc;strokeColor=#6c8ebf;" parent="DiAU9s5X7gYXEooud-6u-108" vertex="1">
          <mxGeometry y="220" width="40" height="20" as="geometry" />
        </mxCell>
        <mxCell id="DiAU9s5X7gYXEooud-6u-15" value="PB5" style="rounded=0;whiteSpace=wrap;html=1;fillColor=#dae8fc;strokeColor=#6c8ebf;" parent="DiAU9s5X7gYXEooud-6u-108" vertex="1">
          <mxGeometry y="240" width="40" height="20" as="geometry" />
        </mxCell>
        <mxCell id="DiAU9s5X7gYXEooud-6u-16" value="PB6" style="rounded=0;whiteSpace=wrap;html=1;fillColor=#dae8fc;strokeColor=#6c8ebf;" parent="DiAU9s5X7gYXEooud-6u-108" vertex="1">
          <mxGeometry y="260" width="40" height="20" as="geometry" />
        </mxCell>
        <mxCell id="DiAU9s5X7gYXEooud-6u-17" value="PB7" style="rounded=0;whiteSpace=wrap;html=1;fillColor=#dae8fc;strokeColor=#6c8ebf;" parent="DiAU9s5X7gYXEooud-6u-108" vertex="1">
          <mxGeometry y="280" width="40" height="20" as="geometry" />
        </mxCell>
        <mxCell id="DiAU9s5X7gYXEooud-6u-18" value="PB8" style="rounded=0;whiteSpace=wrap;html=1;fillColor=#dae8fc;strokeColor=#6c8ebf;" parent="DiAU9s5X7gYXEooud-6u-108" vertex="1">
          <mxGeometry y="300" width="40" height="20" as="geometry" />
        </mxCell>
        <mxCell id="DiAU9s5X7gYXEooud-6u-19" value="PB9" style="rounded=0;whiteSpace=wrap;html=1;fillColor=#dae8fc;strokeColor=#6c8ebf;" parent="DiAU9s5X7gYXEooud-6u-108" vertex="1">
          <mxGeometry y="320" width="40" height="20" as="geometry" />
        </mxCell>
        <mxCell id="DiAU9s5X7gYXEooud-6u-20" value="5V" style="rounded=0;whiteSpace=wrap;html=1;fillColor=#dae8fc;strokeColor=#6c8ebf;" parent="DiAU9s5X7gYXEooud-6u-108" vertex="1">
          <mxGeometry y="340" width="40" height="20" as="geometry" />
        </mxCell>
        <mxCell id="DiAU9s5X7gYXEooud-6u-21" value="GND" style="rounded=0;whiteSpace=wrap;html=1;fillColor=#dae8fc;strokeColor=#6c8ebf;" parent="DiAU9s5X7gYXEooud-6u-108" vertex="1">
          <mxGeometry y="360" width="40" height="20" as="geometry" />
        </mxCell>
        <mxCell id="DiAU9s5X7gYXEooud-6u-22" value="3.3V" style="rounded=0;whiteSpace=wrap;html=1;fillColor=#dae8fc;strokeColor=#6c8ebf;" parent="DiAU9s5X7gYXEooud-6u-108" vertex="1">
          <mxGeometry y="380" width="40" height="20" as="geometry" />
        </mxCell>
        <mxCell id="DYfATxnQDK458sTT8Pim-1" style="edgeStyle=orthogonalEdgeStyle;rounded=0;orthogonalLoop=1;jettySize=auto;html=1;exitX=1;exitY=0.5;exitDx=0;exitDy=0;" edge="1" parent="DiAU9s5X7gYXEooud-6u-108" source="DiAU9s5X7gYXEooud-6u-23">
          <mxGeometry relative="1" as="geometry">
            <mxPoint x="280" y="9.896551724137908" as="targetPoint" />
          </mxGeometry>
        </mxCell>
        <mxCell id="DYfATxnQDK458sTT8Pim-2" value="5V Rail" style="edgeLabel;html=1;align=center;verticalAlign=middle;resizable=0;points=[];" vertex="1" connectable="0" parent="DYfATxnQDK458sTT8Pim-1">
          <mxGeometry x="0.9245" relative="1" as="geometry">
            <mxPoint x="23" as="offset" />
          </mxGeometry>
        </mxCell>
        <mxCell id="DiAU9s5X7gYXEooud-6u-23" value="5V" style="rounded=0;whiteSpace=wrap;html=1;fillColor=#dae8fc;strokeColor=#6c8ebf;" parent="DiAU9s5X7gYXEooud-6u-108" vertex="1">
          <mxGeometry x="160" width="40" height="20" as="geometry" />
        </mxCell>
        <mxCell id="DiAU9s5X7gYXEooud-6u-24" value="GND" style="rounded=0;whiteSpace=wrap;html=1;fillColor=#dae8fc;strokeColor=#6c8ebf;" parent="DiAU9s5X7gYXEooud-6u-108" vertex="1">
          <mxGeometry x="160" y="20" width="40" height="20" as="geometry" />
        </mxCell>
        <mxCell id="DiAU9s5X7gYXEooud-6u-25" value="3.3V" style="rounded=0;whiteSpace=wrap;html=1;fillColor=#dae8fc;strokeColor=#6c8ebf;" parent="DiAU9s5X7gYXEooud-6u-108" vertex="1">
          <mxGeometry x="160" y="40" width="40" height="20" as="geometry" />
        </mxCell>
        <mxCell id="DiAU9s5X7gYXEooud-6u-26" value="PB10" style="rounded=0;whiteSpace=wrap;html=1;fillColor=#dae8fc;strokeColor=#6c8ebf;" parent="DiAU9s5X7gYXEooud-6u-108" vertex="1">
          <mxGeometry x="160" y="60" width="40" height="20" as="geometry" />
        </mxCell>
        <mxCell id="DiAU9s5X7gYXEooud-6u-27" value="PB2" style="rounded=0;whiteSpace=wrap;html=1;fillColor=#dae8fc;strokeColor=#6c8ebf;" parent="DiAU9s5X7gYXEooud-6u-108" vertex="1">
          <mxGeometry x="160" y="80" width="40" height="20" as="geometry" />
        </mxCell>
        <mxCell id="DiAU9s5X7gYXEooud-6u-28" value="PB1" style="rounded=0;whiteSpace=wrap;html=1;fillColor=#dae8fc;strokeColor=#6c8ebf;" parent="DiAU9s5X7gYXEooud-6u-108" vertex="1">
          <mxGeometry x="160" y="100" width="40" height="20" as="geometry" />
        </mxCell>
        <mxCell id="DiAU9s5X7gYXEooud-6u-29" value="PB0" style="rounded=0;whiteSpace=wrap;html=1;fillColor=#dae8fc;strokeColor=#6c8ebf;" parent="DiAU9s5X7gYXEooud-6u-108" vertex="1">
          <mxGeometry x="160" y="120" width="40" height="20" as="geometry" />
        </mxCell>
        <mxCell id="DiAU9s5X7gYXEooud-6u-30" value="PA7" style="rounded=0;whiteSpace=wrap;html=1;fillColor=#dae8fc;strokeColor=#6c8ebf;" parent="DiAU9s5X7gYXEooud-6u-108" vertex="1">
          <mxGeometry x="160" y="140" width="40" height="20" as="geometry" />
        </mxCell>
        <mxCell id="DiAU9s5X7gYXEooud-6u-31" value="PA6" style="rounded=0;whiteSpace=wrap;html=1;fillColor=#dae8fc;strokeColor=#6c8ebf;" parent="DiAU9s5X7gYXEooud-6u-108" vertex="1">
          <mxGeometry x="160" y="160" width="40" height="20" as="geometry" />
        </mxCell>
        <mxCell id="DiAU9s5X7gYXEooud-6u-32" value="PA5" style="rounded=0;whiteSpace=wrap;html=1;fillColor=#dae8fc;strokeColor=#6c8ebf;" parent="DiAU9s5X7gYXEooud-6u-108" vertex="1">
          <mxGeometry x="160" y="180" width="40" height="20" as="geometry" />
        </mxCell>
        <mxCell id="DiAU9s5X7gYXEooud-6u-33" value="PA4" style="rounded=0;whiteSpace=wrap;html=1;fillColor=#dae8fc;strokeColor=#6c8ebf;" parent="DiAU9s5X7gYXEooud-6u-108" vertex="1">
          <mxGeometry x="160" y="200" width="40" height="20" as="geometry" />
        </mxCell>
        <mxCell id="DiAU9s5X7gYXEooud-6u-34" value="PA3" style="rounded=0;whiteSpace=wrap;html=1;fillColor=#dae8fc;strokeColor=#6c8ebf;" parent="DiAU9s5X7gYXEooud-6u-108" vertex="1">
          <mxGeometry x="160" y="220" width="40" height="20" as="geometry" />
        </mxCell>
        <mxCell id="DiAU9s5X7gYXEooud-6u-35" value="PA2" style="rounded=0;whiteSpace=wrap;html=1;fillColor=#dae8fc;strokeColor=#6c8ebf;" parent="DiAU9s5X7gYXEooud-6u-108" vertex="1">
          <mxGeometry x="160" y="240" width="40" height="20" as="geometry" />
        </mxCell>
        <mxCell id="DiAU9s5X7gYXEooud-6u-36" value="PA1" style="rounded=0;whiteSpace=wrap;html=1;fillColor=#dae8fc;strokeColor=#6c8ebf;" parent="DiAU9s5X7gYXEooud-6u-108" vertex="1">
          <mxGeometry x="160" y="260" width="40" height="20" as="geometry" />
        </mxCell>
        <mxCell id="DiAU9s5X7gYXEooud-6u-37" value="PA0" style="rounded=0;whiteSpace=wrap;html=1;fillColor=#dae8fc;strokeColor=#6c8ebf;" parent="DiAU9s5X7gYXEooud-6u-108" vertex="1">
          <mxGeometry x="160" y="280" width="40" height="20" as="geometry" />
        </mxCell>
        <mxCell id="DiAU9s5X7gYXEooud-6u-38" value="NRST" style="rounded=0;whiteSpace=wrap;html=1;fillColor=#dae8fc;strokeColor=#6c8ebf;" parent="DiAU9s5X7gYXEooud-6u-108" vertex="1">
          <mxGeometry x="160" y="300" width="40" height="20" as="geometry" />
        </mxCell>
        <mxCell id="DiAU9s5X7gYXEooud-6u-39" value="PC15" style="rounded=0;whiteSpace=wrap;html=1;fillColor=#dae8fc;strokeColor=#6c8ebf;" parent="DiAU9s5X7gYXEooud-6u-108" vertex="1">
          <mxGeometry x="160" y="320" width="40" height="20" as="geometry" />
        </mxCell>
        <mxCell id="DiAU9s5X7gYXEooud-6u-40" value="PC14" style="rounded=0;whiteSpace=wrap;html=1;fillColor=#dae8fc;strokeColor=#6c8ebf;" parent="DiAU9s5X7gYXEooud-6u-108" vertex="1">
          <mxGeometry x="160" y="340" width="40" height="20" as="geometry" />
        </mxCell>
        <mxCell id="DiAU9s5X7gYXEooud-6u-41" value="PC13" style="rounded=0;whiteSpace=wrap;html=1;fillColor=#dae8fc;strokeColor=#6c8ebf;" parent="DiAU9s5X7gYXEooud-6u-108" vertex="1">
          <mxGeometry x="160" y="360" width="40" height="20" as="geometry" />
        </mxCell>
        <mxCell id="DiAU9s5X7gYXEooud-6u-42" value="VB" style="rounded=0;whiteSpace=wrap;html=1;fillColor=#dae8fc;strokeColor=#6c8ebf;" parent="DiAU9s5X7gYXEooud-6u-108" vertex="1">
          <mxGeometry x="160" y="380" width="40" height="20" as="geometry" />
        </mxCell>
        <mxCell id="DiAU9s5X7gYXEooud-6u-43" value="3.3V" style="rounded=0;whiteSpace=wrap;html=1;fillColor=#dae8fc;strokeColor=#6c8ebf;" parent="DiAU9s5X7gYXEooud-6u-108" vertex="1">
          <mxGeometry y="400" width="60" height="20" as="geometry" />
        </mxCell>
        <mxCell id="DiAU9s5X7gYXEooud-6u-44" value="SWDIO" style="rounded=0;whiteSpace=wrap;html=1;fontSize=10;fillColor=#dae8fc;strokeColor=#6c8ebf;" parent="DiAU9s5X7gYXEooud-6u-108" vertex="1">
          <mxGeometry x="60" y="400" width="40" height="20" as="geometry" />
        </mxCell>
        <mxCell id="DiAU9s5X7gYXEooud-6u-45" value="SWCLK" style="rounded=0;whiteSpace=wrap;html=1;fontSize=10;fillColor=#dae8fc;strokeColor=#6c8ebf;" parent="DiAU9s5X7gYXEooud-6u-108" vertex="1">
          <mxGeometry x="100" y="400" width="40" height="20" as="geometry" />
        </mxCell>
        <mxCell id="DiAU9s5X7gYXEooud-6u-46" value="GND" style="rounded=0;whiteSpace=wrap;html=1;fillColor=#dae8fc;strokeColor=#6c8ebf;" parent="DiAU9s5X7gYXEooud-6u-108" vertex="1">
          <mxGeometry x="140" y="400" width="60" height="20" as="geometry" />
        </mxCell>
        <mxCell id="DiAU9s5X7gYXEooud-6u-109" style="edgeStyle=orthogonalEdgeStyle;rounded=0;orthogonalLoop=1;jettySize=auto;html=1;exitX=1;exitY=0.5;exitDx=0;exitDy=0;entryX=0;entryY=0.5;entryDx=0;entryDy=0;endArrow=none;endFill=0;" parent="1" source="DiAU9s5X7gYXEooud-6u-34" target="DiAU9s5X7gYXEooud-6u-101" edge="1">
          <mxGeometry relative="1" as="geometry" />
        </mxCell>
        <mxCell id="DiAU9s5X7gYXEooud-6u-171" value="USART2_RX" style="edgeLabel;html=1;align=center;verticalAlign=middle;resizable=0;points=[];" parent="DiAU9s5X7gYXEooud-6u-109" vertex="1" connectable="0">
          <mxGeometry x="0.0432" y="-1" relative="1" as="geometry">
            <mxPoint x="-9" y="-1" as="offset" />
          </mxGeometry>
        </mxCell>
        <mxCell id="DiAU9s5X7gYXEooud-6u-110" value="" style="group" parent="1" vertex="1" connectable="0">
          <mxGeometry x="620.05" y="300" width="120" height="120" as="geometry" />
        </mxCell>
        <mxCell id="DiAU9s5X7gYXEooud-6u-97" value="" style="group;fillColor=#e1d5e7;strokeColor=#9673a6;fontSize=10;container=0;" parent="DiAU9s5X7gYXEooud-6u-110" vertex="1" connectable="0">
          <mxGeometry width="120" height="120" as="geometry" />
        </mxCell>
        <mxCell id="DiAU9s5X7gYXEooud-6u-99" value="&lt;font style=&quot;font-size: 11px;&quot;&gt;STATE&lt;/font&gt;" style="rounded=0;whiteSpace=wrap;html=1;fillColor=#e1d5e7;strokeColor=#9673a6;" parent="DiAU9s5X7gYXEooud-6u-110" vertex="1">
          <mxGeometry width="40" height="20" as="geometry" />
        </mxCell>
        <mxCell id="DiAU9s5X7gYXEooud-6u-100" value="RXD" style="rounded=0;whiteSpace=wrap;html=1;fillColor=#e1d5e7;strokeColor=#9673a6;" parent="DiAU9s5X7gYXEooud-6u-110" vertex="1">
          <mxGeometry y="40" width="40" height="20" as="geometry" />
        </mxCell>
        <mxCell id="DiAU9s5X7gYXEooud-6u-101" value="TXD" style="rounded=0;whiteSpace=wrap;html=1;fillColor=#e1d5e7;strokeColor=#9673a6;" parent="DiAU9s5X7gYXEooud-6u-110" vertex="1">
          <mxGeometry y="20" width="40" height="20" as="geometry" />
        </mxCell>
        <mxCell id="DiAU9s5X7gYXEooud-6u-102" value="GND" style="rounded=0;whiteSpace=wrap;html=1;fillColor=#e1d5e7;strokeColor=#9673a6;" parent="DiAU9s5X7gYXEooud-6u-110" vertex="1">
          <mxGeometry y="60" width="40" height="20" as="geometry" />
        </mxCell>
        <mxCell id="DiAU9s5X7gYXEooud-6u-162" style="edgeStyle=orthogonalEdgeStyle;rounded=0;orthogonalLoop=1;jettySize=auto;html=1;exitX=0;exitY=0.5;exitDx=0;exitDy=0;" parent="DiAU9s5X7gYXEooud-6u-110" source="DiAU9s5X7gYXEooud-6u-103" edge="1">
          <mxGeometry relative="1" as="geometry">
            <mxPoint x="-60" y="90.19047619047615" as="targetPoint" />
          </mxGeometry>
        </mxCell>
        <mxCell id="DiAU9s5X7gYXEooud-6u-163" value="5V Rail" style="edgeLabel;html=1;align=center;verticalAlign=middle;resizable=0;points=[];" parent="DiAU9s5X7gYXEooud-6u-162" vertex="1" connectable="0">
          <mxGeometry x="1" y="3" relative="1" as="geometry">
            <mxPoint x="-20" y="-3" as="offset" />
          </mxGeometry>
        </mxCell>
        <mxCell id="DiAU9s5X7gYXEooud-6u-103" value="VCC" style="rounded=0;whiteSpace=wrap;html=1;fillColor=#e1d5e7;strokeColor=#9673a6;" parent="DiAU9s5X7gYXEooud-6u-110" vertex="1">
          <mxGeometry y="80" width="40" height="20" as="geometry" />
        </mxCell>
        <mxCell id="DiAU9s5X7gYXEooud-6u-104" value="EN" style="rounded=0;whiteSpace=wrap;html=1;fillColor=#e1d5e7;strokeColor=#9673a6;" parent="DiAU9s5X7gYXEooud-6u-110" vertex="1">
          <mxGeometry y="100" width="40" height="20" as="geometry" />
        </mxCell>
        <mxCell id="DiAU9s5X7gYXEooud-6u-106" value="HC-05" style="rounded=0;whiteSpace=wrap;html=1;fillColor=#e1d5e7;strokeColor=#9673a6;" parent="DiAU9s5X7gYXEooud-6u-110" vertex="1">
          <mxGeometry x="40" width="80" height="120" as="geometry" />
        </mxCell>
        <mxCell id="DiAU9s5X7gYXEooud-6u-111" style="edgeStyle=orthogonalEdgeStyle;rounded=0;orthogonalLoop=1;jettySize=auto;html=1;exitX=1;exitY=0.5;exitDx=0;exitDy=0;entryX=0;entryY=0.5;entryDx=0;entryDy=0;endArrow=none;endFill=0;" parent="1" source="DiAU9s5X7gYXEooud-6u-35" target="DiAU9s5X7gYXEooud-6u-100" edge="1">
          <mxGeometry relative="1" as="geometry" />
        </mxCell>
        <mxCell id="DiAU9s5X7gYXEooud-6u-173" value="USART2_TX" style="edgeLabel;html=1;align=center;verticalAlign=middle;resizable=0;points=[];" parent="DiAU9s5X7gYXEooud-6u-111" vertex="1" connectable="0">
          <mxGeometry x="-0.0138" relative="1" as="geometry">
            <mxPoint x="-4" as="offset" />
          </mxGeometry>
        </mxCell>
        <mxCell id="DiAU9s5X7gYXEooud-6u-166" style="edgeStyle=orthogonalEdgeStyle;rounded=0;orthogonalLoop=1;jettySize=auto;html=1;exitX=1;exitY=0.5;exitDx=0;exitDy=0;entryX=0.5;entryY=0;entryDx=0;entryDy=0;endArrow=none;endFill=0;" parent="1" source="DiAU9s5X7gYXEooud-6u-24" target="DYfATxnQDK458sTT8Pim-3" edge="1">
          <mxGeometry relative="1" as="geometry">
            <mxPoint x="490" y="130.00000000000023" as="targetPoint" />
            <Array as="points">
              <mxPoint x="480" y="130" />
            </Array>
          </mxGeometry>
        </mxCell>
        <mxCell id="DiAU9s5X7gYXEooud-6u-178" style="edgeStyle=orthogonalEdgeStyle;rounded=0;orthogonalLoop=1;jettySize=auto;html=1;exitX=0;exitY=0.5;exitDx=0;exitDy=0;endArrow=none;endFill=0;entryX=1;entryY=0.5;entryDx=0;entryDy=0;" parent="1" source="DiAU9s5X7gYXEooud-6u-17" target="DiAU9s5X7gYXEooud-6u-50" edge="1">
          <mxGeometry relative="1" as="geometry">
            <mxPoint x="117.66000000000008" y="390.16999999999985" as="targetPoint" />
          </mxGeometry>
        </mxCell>
        <mxCell id="DiAU9s5X7gYXEooud-6u-181" value="I2C1_SDA" style="edgeLabel;html=1;align=center;verticalAlign=middle;resizable=0;points=[];" parent="DiAU9s5X7gYXEooud-6u-178" vertex="1" connectable="0">
          <mxGeometry x="0.3239" y="-1" relative="1" as="geometry">
            <mxPoint x="104" y="1" as="offset" />
          </mxGeometry>
        </mxCell>
        <mxCell id="DiAU9s5X7gYXEooud-6u-176" style="edgeStyle=orthogonalEdgeStyle;rounded=0;orthogonalLoop=1;jettySize=auto;html=1;exitX=0;exitY=0.5;exitDx=0;exitDy=0;endArrow=none;endFill=0;entryX=1;entryY=0.5;entryDx=0;entryDy=0;" parent="1" source="DiAU9s5X7gYXEooud-6u-16" target="DiAU9s5X7gYXEooud-6u-182" edge="1">
          <mxGeometry relative="1" as="geometry">
            <mxPoint x="120" y="370" as="targetPoint" />
          </mxGeometry>
        </mxCell>
        <mxCell id="DiAU9s5X7gYXEooud-6u-177" value="I2C1_SCL" style="edgeLabel;html=1;align=center;verticalAlign=middle;resizable=0;points=[];" parent="DiAU9s5X7gYXEooud-6u-176" vertex="1" connectable="0">
          <mxGeometry x="0.332" relative="1" as="geometry">
            <mxPoint x="105" as="offset" />
          </mxGeometry>
        </mxCell>
        <mxCell id="DiAU9s5X7gYXEooud-6u-215" value="" style="shape=waypoint;sketch=0;size=6;pointerEvents=1;points=[];fillColor=none;resizable=0;rotatable=0;perimeter=centerPerimeter;snapToPoint=1;" parent="1" vertex="1">
          <mxGeometry x="110" y="360" width="20" height="20" as="geometry" />
        </mxCell>
        <mxCell id="DiAU9s5X7gYXEooud-6u-226" value="4.7k" style="pointerEvents=1;verticalLabelPosition=middle;shadow=0;dashed=0;align=left;html=1;verticalAlign=top;shape=mxgraph.electrical.resistors.resistor_2;labelPosition=center;spacingBottom=0;spacingLeft=19;direction=west;spacing=0;spacingTop=20;points=[[0,0.5,0,0,0],[0.5,0,0,0,-3],[0.5,1,0,0,2],[1,0.5,0,0,0]];fillColor=none;rotation=90;horizontal=0;" parent="1" vertex="1">
          <mxGeometry x="90" y="430" width="60" height="10" as="geometry" />
        </mxCell>
        <mxCell id="DiAU9s5X7gYXEooud-6u-227" value="4.7k" style="pointerEvents=1;verticalLabelPosition=middle;shadow=0;dashed=0;align=left;html=1;verticalAlign=top;shape=mxgraph.electrical.resistors.resistor_2;labelPosition=center;spacingBottom=0;spacingLeft=19;direction=west;spacing=0;spacingTop=20;points=[[0,0.5,0,0,0],[0.5,0,0,0,-3],[0.5,1,0,0,2],[1,0.5,0,0,0]];fillColor=none;rotation=90;horizontal=0;" parent="1" vertex="1">
          <mxGeometry x="10" y="420" width="60" height="10" as="geometry" />
        </mxCell>
        <mxCell id="DiAU9s5X7gYXEooud-6u-229" value="" style="shape=waypoint;sketch=0;size=6;pointerEvents=1;points=[];fillColor=none;resizable=0;rotatable=0;perimeter=centerPerimeter;snapToPoint=1;" parent="1" vertex="1">
          <mxGeometry x="30" y="380" width="20" height="20" as="geometry" />
        </mxCell>
        <mxCell id="q9O66fsoj4CQGOpoVoLm-80" style="edgeStyle=orthogonalEdgeStyle;rounded=0;orthogonalLoop=1;jettySize=auto;html=1;exitX=0;exitY=0.5;exitDx=0;exitDy=0;endArrow=none;endFill=0;entryX=0.7;entryY=0.446;entryDx=0;entryDy=0;entryPerimeter=0;" parent="1" source="q9O66fsoj4CQGOpoVoLm-91" target="q9O66fsoj4CQGOpoVoLm-84" edge="1">
          <mxGeometry relative="1" as="geometry">
            <mxPoint x="663" y="889.95" as="sourcePoint" />
            <mxPoint x="602" y="889.95" as="targetPoint" />
          </mxGeometry>
        </mxCell>
        <mxCell id="DYfATxnQDK458sTT8Pim-76" value="Enable" style="edgeLabel;html=1;align=center;verticalAlign=middle;resizable=0;points=[];" vertex="1" connectable="0" parent="q9O66fsoj4CQGOpoVoLm-80">
          <mxGeometry x="-0.418" relative="1" as="geometry">
            <mxPoint as="offset" />
          </mxGeometry>
        </mxCell>
        <mxCell id="q9O66fsoj4CQGOpoVoLm-82" value="500" style="pointerEvents=1;verticalLabelPosition=middle;shadow=0;dashed=0;align=left;html=1;verticalAlign=top;shape=mxgraph.electrical.resistors.resistor_2;labelPosition=center;spacingBottom=0;spacingLeft=10;direction=west;spacing=0;spacingTop=-20;points=[[0,0.5,0,0,0],[0.5,0,0,0,-3],[0.5,1,0,0,2],[1,0.5,0,0,0]];fillColor=none;" parent="1" vertex="1">
          <mxGeometry x="600" y="785" width="40" height="10" as="geometry" />
        </mxCell>
        <mxCell id="q9O66fsoj4CQGOpoVoLm-83" style="edgeStyle=orthogonalEdgeStyle;rounded=0;orthogonalLoop=1;jettySize=auto;html=1;exitX=1;exitY=0.5;exitDx=0;exitDy=0;endArrow=none;endFill=0;entryX=0.567;entryY=-0.083;entryDx=0;entryDy=0;entryPerimeter=0;exitPerimeter=0;" parent="1" source="q9O66fsoj4CQGOpoVoLm-82" target="q9O66fsoj4CQGOpoVoLm-84" edge="1">
          <mxGeometry relative="1" as="geometry">
            <mxPoint x="562" y="859.95" as="targetPoint" />
            <mxPoint x="602.1099999999999" y="737.45" as="sourcePoint" />
          </mxGeometry>
        </mxCell>
        <mxCell id="q9O66fsoj4CQGOpoVoLm-180" style="edgeStyle=orthogonalEdgeStyle;rounded=0;orthogonalLoop=1;jettySize=auto;html=1;entryX=1;entryY=0.5;entryDx=0;entryDy=0;endArrow=none;endFill=0;" parent="1" source="q9O66fsoj4CQGOpoVoLm-84" target="q9O66fsoj4CQGOpoVoLm-176" edge="1">
          <mxGeometry relative="1" as="geometry" />
        </mxCell>
        <mxCell id="DYfATxnQDK458sTT8Pim-73" value="" style="edgeStyle=orthogonalEdgeStyle;rounded=0;orthogonalLoop=1;jettySize=auto;html=1;endArrow=none;endFill=0;" edge="1" parent="1" source="q9O66fsoj4CQGOpoVoLm-84" target="q9O66fsoj4CQGOpoVoLm-82">
          <mxGeometry relative="1" as="geometry" />
        </mxCell>
        <mxCell id="DYfATxnQDK458sTT8Pim-75" value="Precharge" style="edgeLabel;html=1;align=center;verticalAlign=middle;resizable=0;points=[];" vertex="1" connectable="0" parent="DYfATxnQDK458sTT8Pim-73">
          <mxGeometry x="-0.1039" relative="1" as="geometry">
            <mxPoint as="offset" />
          </mxGeometry>
        </mxCell>
        <mxCell id="q9O66fsoj4CQGOpoVoLm-84" value="" style="shape=waypoint;sketch=0;size=6;pointerEvents=1;points=[];fillColor=none;resizable=0;rotatable=0;perimeter=centerPerimeter;snapToPoint=1;" parent="1" vertex="1">
          <mxGeometry x="480" y="780" width="20" height="20" as="geometry" />
        </mxCell>
        <mxCell id="q9O66fsoj4CQGOpoVoLm-184" style="edgeStyle=orthogonalEdgeStyle;rounded=0;orthogonalLoop=1;jettySize=auto;html=1;entryX=1;entryY=0.5;entryDx=0;entryDy=0;endArrow=none;endFill=0;" parent="1" source="q9O66fsoj4CQGOpoVoLm-85" target="q9O66fsoj4CQGOpoVoLm-183" edge="1">
          <mxGeometry relative="1" as="geometry" />
        </mxCell>
        <mxCell id="q9O66fsoj4CQGOpoVoLm-220" style="edgeStyle=orthogonalEdgeStyle;rounded=0;orthogonalLoop=1;jettySize=auto;html=1;entryX=1;entryY=1;entryDx=0;entryDy=0;endArrow=none;endFill=0;" parent="1" source="q9O66fsoj4CQGOpoVoLm-85" target="q9O66fsoj4CQGOpoVoLm-91" edge="1">
          <mxGeometry relative="1" as="geometry">
            <Array as="points">
              <mxPoint x="705" y="878" />
              <mxPoint x="640" y="878" />
            </Array>
          </mxGeometry>
        </mxCell>
        <mxCell id="q9O66fsoj4CQGOpoVoLm-85" value="" style="shape=waypoint;sketch=0;size=6;pointerEvents=1;points=[];fillColor=none;resizable=0;rotatable=0;perimeter=centerPerimeter;snapToPoint=1;" parent="1" vertex="1">
          <mxGeometry x="720" y="867.45" width="20" height="20" as="geometry" />
        </mxCell>
        <mxCell id="q9O66fsoj4CQGOpoVoLm-87" value="" style="group" parent="1" vertex="1" connectable="0">
          <mxGeometry x="600" y="851" width="40" height="25" as="geometry" />
        </mxCell>
        <mxCell id="q9O66fsoj4CQGOpoVoLm-88" style="edgeStyle=orthogonalEdgeStyle;rounded=0;orthogonalLoop=1;jettySize=auto;html=1;exitX=0;exitY=0;exitDx=0;exitDy=0;" parent="q9O66fsoj4CQGOpoVoLm-87" source="q9O66fsoj4CQGOpoVoLm-90" edge="1">
          <mxGeometry relative="1" as="geometry">
            <mxPoint y="-30" as="targetPoint" />
          </mxGeometry>
        </mxCell>
        <mxCell id="q9O66fsoj4CQGOpoVoLm-89" value="PA8" style="edgeLabel;html=1;align=center;verticalAlign=middle;resizable=0;points=[];" parent="q9O66fsoj4CQGOpoVoLm-88" vertex="1" connectable="0">
          <mxGeometry x="0.8796" y="1" relative="1" as="geometry">
            <mxPoint x="1" y="-13" as="offset" />
          </mxGeometry>
        </mxCell>
        <mxCell id="q9O66fsoj4CQGOpoVoLm-90" value="" style="shape=stencil(vZXdcoIwEEafJrdOfpDhtkPb94gYS8aYMAkqvn0DoS3BQBS1N858u8PZA2QFkNyUtGIAwxKQd4AxhvbHxrOLWR+pqVhRu9qJak43grmOqbXaszPf1j2By5JpXrdd8gHgG2iREJC8UFJaCFfSeJ1B38Iol/Za2DhYP/7ipcryD6xm2lWRqwL8eTMWvQbr26LX2D4NG7R92Osug9X6X17ECq8fvrtJBsltZepsk3xDi/2XVke5DU5mQvDKsL+xaebNxd46Ji6VXgoKTYwl+U5pNuOz40K4lZ55XBVtl/2q8dM+qNPghoIrHCb/vo6jdgTkI5D/H9VgP19GuSGjfp/hIomYRRKxSMYWSySSiEQakUifIZFGJLKIRLZEYu5Q3UYQXA4I2T2IbqUmTr39hE7tS3fZ1cJ1VffZ7Qrf);whiteSpace=wrap;html=1;direction=north;fillColor=none;spacingTop=0;spacing=0;spacingLeft=0;verticalAlign=top;align=center;labelPosition=center;verticalLabelPosition=bottom;spacingBottom=0;spacingRight=0;rotation=90;" parent="q9O66fsoj4CQGOpoVoLm-87" vertex="1">
          <mxGeometry x="15" y="-15" width="10" height="40" as="geometry" />
        </mxCell>
        <mxCell id="q9O66fsoj4CQGOpoVoLm-91" value="" style="shape=stencil(zZVhT8MgEIZ/DR81FDazfTR1/g/WnZaMAQHc9N9Le60paalT18SkafLeWx4O7gqEl74WFgijNeFPhLEVja8oLyg3nRTeQhUwdhZOir0CdHxw5ggXeQgdQeoanAyNy3eEPsZvmoeXldE6QqTRPnEGfoQJqeNY+o6wbvqPTt2vUds4wwkCOIwXGCXs+WpwkYCLZbD0J1hexkhuj3i5F9Xx1Zk3fRiPynovxsGE8WVLpbB+M8u0oqnsyOjtkzlDrl69nEb3BCX1gHADxAOdqsI8IV3GbwhpDptb57D6exLziLaTMsWOx8R3bXJVL4FS0vpBhsU2/Q+3yenDUNWJyrEXynCdZnhX/PcM+RJ72DbH6DRpo3iBtIFP);whiteSpace=wrap;html=1;" parent="q9O66fsoj4CQGOpoVoLm-87" vertex="1">
          <mxGeometry y="15" width="40" height="10" as="geometry" />
        </mxCell>
        <mxCell id="q9O66fsoj4CQGOpoVoLm-92" style="edgeStyle=orthogonalEdgeStyle;rounded=0;orthogonalLoop=1;jettySize=auto;html=1;exitX=0.5;exitY=0;exitDx=0;exitDy=0;endArrow=none;endFill=0;entryX=1;entryY=0;entryDx=0;entryDy=0;" parent="1" source="q9O66fsoj4CQGOpoVoLm-93" target="q9O66fsoj4CQGOpoVoLm-90" edge="1">
          <mxGeometry relative="1" as="geometry">
            <mxPoint x="640" y="841" as="targetPoint" />
          </mxGeometry>
        </mxCell>
        <mxCell id="q9O66fsoj4CQGOpoVoLm-93" value="" style="shape=stencil(pZPZDoIwEEW/pq+mtOLyaFD/o8AojdiSUre/tzCgVmji8kIy9zJnbiZTwpO6EBUQRgvC14QxRt3HlRe/FHUFmUXtLIwUaQno1NboA1xkbjuCVAUYaRuXbwhdkYZBCU8yrZSDSK1qz3nxHUxI5XrpFWF0EuOYW1djVbkJR7BgUI1QJWz7NtIpoak8SUV22Bt9UvmwK+jttIER42HLssSNjOTpf6pEs6uB0dtHfYbnBiI6toBxdE8opQoT4k8Ifobp94C3CLN/I/iA+Q8Rpt8T/AgLD7D8IQL7nNBeYeBQ3KMNnVjbNrjRVsWH3gp3);whiteSpace=wrap;html=1;rotation=-180;" parent="1" vertex="1">
          <mxGeometry x="630" y="811" width="20" height="20" as="geometry" />
        </mxCell>
        <mxCell id="q9O66fsoj4CQGOpoVoLm-3" value="12V" style="pointerEvents=1;verticalLabelPosition=middle;shadow=0;dashed=0;align=left;html=1;verticalAlign=top;shape=mxgraph.electrical.signal_sources.source;aspect=fixed;points=[[0.5,0,0],[1,0.5,0],[0.5,1,0],[0,0.5,0]];elSignalType=dc3;direction=east;labelPosition=center;spacingBottom=0;spacingLeft=-30;spacing=0;spacingTop=20;fillColor=none;" parent="1" vertex="1">
          <mxGeometry x="30" y="-85" width="40" height="40" as="geometry" />
        </mxCell>
        <mxCell id="q9O66fsoj4CQGOpoVoLm-7" style="edgeStyle=orthogonalEdgeStyle;rounded=0;orthogonalLoop=1;jettySize=auto;html=1;exitDx=0;exitDy=0;exitPerimeter=0;entryX=0;entryY=1;entryDx=0;entryDy=0;endArrow=none;endFill=0;" parent="1" target="q9O66fsoj4CQGOpoVoLm-6" edge="1">
          <mxGeometry relative="1" as="geometry">
            <mxPoint x="310" y="-135" as="sourcePoint" />
            <Array as="points">
              <mxPoint x="230" y="-135" />
            </Array>
          </mxGeometry>
        </mxCell>
        <mxCell id="q9O66fsoj4CQGOpoVoLm-4" value="&lt;font style=&quot;font-size: 12px;&quot;&gt;10A&lt;/font&gt;" style="pointerEvents=1;verticalLabelPosition=bottom;shadow=0;dashed=0;align=center;html=1;verticalAlign=top;shape=mxgraph.electrical.miscellaneous.fuse_4;fontSize=20;fillColor=none;spacingTop=-50;" parent="1" vertex="1">
          <mxGeometry x="150" y="-145.00000000000023" width="40" height="20" as="geometry" />
        </mxCell>
        <mxCell id="q9O66fsoj4CQGOpoVoLm-5" style="edgeStyle=orthogonalEdgeStyle;rounded=0;orthogonalLoop=1;jettySize=auto;html=1;exitDx=0;exitDy=0;exitPerimeter=0;entryX=0.027;entryY=0.499;entryDx=0;entryDy=0;entryPerimeter=0;endArrow=none;endFill=0;" parent="1" source="q9O66fsoj4CQGOpoVoLm-10" target="q9O66fsoj4CQGOpoVoLm-4" edge="1">
          <mxGeometry relative="1" as="geometry">
            <Array as="points" />
          </mxGeometry>
        </mxCell>
        <mxCell id="q9O66fsoj4CQGOpoVoLm-6" value="" style="shape=stencil(zZTRbsMgDEW/hsdJBB7WPk7Z9h80dRerFBDQdvv7OiGpwlK2aFulSVEk+4YT44thsg6tcsAEb5l8ZkJITi8Kzyms+BCr4KCJKXlSHtVGQ1JC9HYPZ9zGAYGmBY+xU+UL40/0TffIurHGEAStCZky0Qmm0NBa/p5gw+8/hnJS5Ih/gAg+yzLxuhhb/Rwra8qUtiLrjWr2b94ezXa+qqjtrIcbwlVGrVObv9imU50BM2GUD/YEpbaOpt9GjwSNZkL4A8RjjlhEyLex+n0R1xO+iNHbWOg0zdJ3Hi0yErRGF6YlrrMKxTobUZGiNotK7DtV+MnJh+r/Vbi6fw/7wzEb5T6bbtk+cQE=);whiteSpace=wrap;html=1;" parent="1" vertex="1">
          <mxGeometry x="310" y="-145" width="40" height="10" as="geometry" />
        </mxCell>
        <mxCell id="q9O66fsoj4CQGOpoVoLm-11" value="" style="edgeStyle=orthogonalEdgeStyle;rounded=0;orthogonalLoop=1;jettySize=auto;html=1;exitX=0.5;exitY=0;exitDx=0;exitDy=0;exitPerimeter=0;entryDx=0;entryDy=0;entryPerimeter=0;endArrow=none;endFill=0;" parent="1" source="q9O66fsoj4CQGOpoVoLm-3" target="q9O66fsoj4CQGOpoVoLm-10" edge="1">
          <mxGeometry relative="1" as="geometry">
            <mxPoint x="50" y="-85" as="sourcePoint" />
            <mxPoint x="151" y="-135" as="targetPoint" />
            <Array as="points">
              <mxPoint x="50" y="-135" />
            </Array>
          </mxGeometry>
        </mxCell>
        <mxCell id="q9O66fsoj4CQGOpoVoLm-10" value="" style="shape=waypoint;sketch=0;size=6;pointerEvents=1;points=[];fillColor=none;resizable=0;rotatable=0;perimeter=centerPerimeter;snapToPoint=1;" parent="1" vertex="1">
          <mxGeometry x="100" y="-145" width="20" height="20" as="geometry" />
        </mxCell>
        <mxCell id="q9O66fsoj4CQGOpoVoLm-13" value="" style="shape=waypoint;sketch=0;size=6;pointerEvents=1;points=[];fillColor=none;resizable=0;rotatable=0;perimeter=centerPerimeter;snapToPoint=1;" parent="1" vertex="1">
          <mxGeometry x="220" y="-145" width="20" height="20" as="geometry" />
        </mxCell>
        <mxCell id="q9O66fsoj4CQGOpoVoLm-62" value="" style="edgeStyle=orthogonalEdgeStyle;rounded=0;orthogonalLoop=1;jettySize=auto;html=1;exitX=1;exitY=0.5;exitDx=0;exitDy=0;exitPerimeter=0;entryDx=0;entryDy=0;endArrow=none;endFill=0;" parent="1" source="q9O66fsoj4CQGOpoVoLm-4" edge="1">
          <mxGeometry relative="1" as="geometry">
            <mxPoint x="190" y="-135" as="sourcePoint" />
            <mxPoint x="310" y="-135" as="targetPoint" />
            <Array as="points">
              <mxPoint x="230" y="-135" />
            </Array>
          </mxGeometry>
        </mxCell>
        <mxCell id="q9O66fsoj4CQGOpoVoLm-103" value="" style="edgeStyle=orthogonalEdgeStyle;rounded=0;orthogonalLoop=1;jettySize=auto;html=1;exitX=1;exitY=1;exitDx=0;exitDy=0;endArrow=none;endFill=0;entryDx=0;entryDy=0;" parent="1" source="q9O66fsoj4CQGOpoVoLm-6" target="q9O66fsoj4CQGOpoVoLm-102" edge="1">
          <mxGeometry relative="1" as="geometry">
            <mxPoint x="350" y="-135" as="sourcePoint" />
            <mxPoint x="430" y="-135" as="targetPoint" />
            <Array as="points">
              <mxPoint x="390" y="-135" />
            </Array>
          </mxGeometry>
        </mxCell>
        <mxCell id="q9O66fsoj4CQGOpoVoLm-130" style="edgeStyle=orthogonalEdgeStyle;rounded=0;orthogonalLoop=1;jettySize=auto;html=1;" parent="1" source="q9O66fsoj4CQGOpoVoLm-102" edge="1">
          <mxGeometry relative="1" as="geometry">
            <mxPoint x="630" y="-135.0000000000001" as="targetPoint" />
          </mxGeometry>
        </mxCell>
        <mxCell id="q9O66fsoj4CQGOpoVoLm-131" value="12V Rail" style="edgeLabel;html=1;align=center;verticalAlign=middle;resizable=0;points=[];" parent="q9O66fsoj4CQGOpoVoLm-130" vertex="1" connectable="0">
          <mxGeometry x="0.9833" y="-1" relative="1" as="geometry">
            <mxPoint x="32" y="-1" as="offset" />
          </mxGeometry>
        </mxCell>
        <mxCell id="q9O66fsoj4CQGOpoVoLm-102" value="" style="shape=waypoint;sketch=0;size=6;pointerEvents=1;points=[];fillColor=none;resizable=0;rotatable=0;perimeter=centerPerimeter;snapToPoint=1;" parent="1" vertex="1">
          <mxGeometry x="380" y="-145" width="20" height="20" as="geometry" />
        </mxCell>
        <mxCell id="q9O66fsoj4CQGOpoVoLm-117" style="edgeStyle=orthogonalEdgeStyle;rounded=0;orthogonalLoop=1;jettySize=auto;html=1;entryX=0;entryY=0.5;entryDx=0;entryDy=0;endArrow=none;endFill=0;" parent="1" source="q9O66fsoj4CQGOpoVoLm-102" target="q9O66fsoj4CQGOpoVoLm-110" edge="1">
          <mxGeometry relative="1" as="geometry">
            <Array as="points">
              <mxPoint x="390" y="-80" />
              <mxPoint x="460" y="-80" />
            </Array>
          </mxGeometry>
        </mxCell>
        <mxCell id="q9O66fsoj4CQGOpoVoLm-134" style="edgeStyle=orthogonalEdgeStyle;rounded=0;orthogonalLoop=1;jettySize=auto;html=1;exitX=0.5;exitY=1;exitDx=0;exitDy=0;exitPerimeter=0;entryX=0.5;entryY=0;entryDx=0;entryDy=0;endArrow=none;endFill=0;" parent="1" source="q9O66fsoj4CQGOpoVoLm-3" target="DYfATxnQDK458sTT8Pim-6" edge="1">
          <mxGeometry relative="1" as="geometry">
            <mxPoint x="50" y="10" as="targetPoint" />
          </mxGeometry>
        </mxCell>
        <mxCell id="q9O66fsoj4CQGOpoVoLm-147" style="edgeStyle=orthogonalEdgeStyle;rounded=0;orthogonalLoop=1;jettySize=auto;html=1;exitX=0.5;exitY=0;exitDx=0;exitDy=0;exitPerimeter=0;entryX=0;entryY=0.5;entryDx=0;entryDy=0;endArrow=none;endFill=0;" parent="1" source="q9O66fsoj4CQGOpoVoLm-146" target="q9O66fsoj4CQGOpoVoLm-144" edge="1">
          <mxGeometry relative="1" as="geometry">
            <mxPoint x="220.00000000000023" y="570" as="targetPoint" />
            <Array as="points">
              <mxPoint x="120" y="570" />
            </Array>
          </mxGeometry>
        </mxCell>
        <mxCell id="q9O66fsoj4CQGOpoVoLm-148" style="edgeStyle=orthogonalEdgeStyle;rounded=0;orthogonalLoop=1;jettySize=auto;html=1;exitX=0.5;exitY=1;exitDx=0;exitDy=0;exitPerimeter=0;entryX=0;entryY=0.5;entryDx=0;entryDy=0;endArrow=none;endFill=0;" parent="1" source="q9O66fsoj4CQGOpoVoLm-146" target="q9O66fsoj4CQGOpoVoLm-145" edge="1">
          <mxGeometry relative="1" as="geometry">
            <mxPoint x="220.00000000000023" y="630" as="targetPoint" />
            <Array as="points">
              <mxPoint x="120" y="630" />
            </Array>
          </mxGeometry>
        </mxCell>
        <mxCell id="q9O66fsoj4CQGOpoVoLm-146" value="M" style="verticalLabelPosition=middle;shadow=0;dashed=0;align=center;html=1;verticalAlign=middle;strokeWidth=1;shape=ellipse;aspect=fixed;fontSize=20;spacing=0;spacingBottom=2;direction=east;fillColor=none;points=[[0,0.5,0,0,0],[0.5,0,0,0,0],[0.5,1,0,0,0],[1,0.5,0,0,0]];" parent="1" vertex="1">
          <mxGeometry x="100" y="580" width="40" height="40" as="geometry" />
        </mxCell>
        <mxCell id="q9O66fsoj4CQGOpoVoLm-150" style="edgeStyle=orthogonalEdgeStyle;rounded=0;orthogonalLoop=1;jettySize=auto;html=1;exitDx=0;exitDy=0;entryX=1;entryY=0.5;entryDx=0;entryDy=0;endArrow=none;endFill=0;" parent="1" source="q9O66fsoj4CQGOpoVoLm-151" target="q9O66fsoj4CQGOpoVoLm-149" edge="1">
          <mxGeometry relative="1" as="geometry">
            <mxPoint x="509.9999999999998" y="570" as="targetPoint" />
          </mxGeometry>
        </mxCell>
        <mxCell id="q9O66fsoj4CQGOpoVoLm-190" value="E-Stop" style="edgeLabel;html=1;align=center;verticalAlign=middle;resizable=0;points=[];" parent="q9O66fsoj4CQGOpoVoLm-150" vertex="1" connectable="0">
          <mxGeometry x="0.1723" y="-1" relative="1" as="geometry">
            <mxPoint as="offset" />
          </mxGeometry>
        </mxCell>
        <mxCell id="q9O66fsoj4CQGOpoVoLm-167" style="edgeStyle=orthogonalEdgeStyle;rounded=0;orthogonalLoop=1;jettySize=auto;html=1;entryX=0;entryY=0.5;entryDx=0;entryDy=0;endArrow=none;endFill=0;" parent="1" source="q9O66fsoj4CQGOpoVoLm-151" edge="1">
          <mxGeometry relative="1" as="geometry">
            <mxPoint x="590" y="570" as="targetPoint" />
          </mxGeometry>
        </mxCell>
        <mxCell id="q9O66fsoj4CQGOpoVoLm-151" value="" style="shape=waypoint;sketch=0;size=6;pointerEvents=1;points=[];fillColor=none;resizable=0;rotatable=0;perimeter=centerPerimeter;snapToPoint=1;" parent="1" vertex="1">
          <mxGeometry x="540" y="560" width="20" height="20" as="geometry" />
        </mxCell>
        <mxCell id="q9O66fsoj4CQGOpoVoLm-213" style="edgeStyle=orthogonalEdgeStyle;rounded=0;orthogonalLoop=1;jettySize=auto;html=1;exitX=0;exitY=0.5;exitDx=0;exitDy=0;exitPerimeter=0;" parent="1" source="q9O66fsoj4CQGOpoVoLm-153" edge="1">
          <mxGeometry relative="1" as="geometry">
            <mxPoint x="550.0645161290322" y="640" as="targetPoint" />
          </mxGeometry>
        </mxCell>
        <mxCell id="q9O66fsoj4CQGOpoVoLm-214" value="5V Rail" style="edgeLabel;html=1;align=center;verticalAlign=middle;resizable=0;points=[];" parent="q9O66fsoj4CQGOpoVoLm-213" vertex="1" connectable="0">
          <mxGeometry x="0.6038" y="-1" relative="1" as="geometry">
            <mxPoint x="31" y="3" as="offset" />
          </mxGeometry>
        </mxCell>
        <mxCell id="q9O66fsoj4CQGOpoVoLm-153" value="220" style="pointerEvents=1;verticalLabelPosition=middle;shadow=0;dashed=0;align=left;html=1;verticalAlign=top;shape=mxgraph.electrical.resistors.resistor_2;labelPosition=center;spacingBottom=0;spacingLeft=17;direction=west;spacing=0;spacingTop=10;points=[[0,0.5,0,0,0],[0.5,0,0,0,-3],[0.5,1,0,0,2],[1,0.5,0,0,0]];fillColor=none;rotation=90;horizontal=0;" parent="1" vertex="1">
          <mxGeometry x="530" y="600" width="40" height="10" as="geometry" />
        </mxCell>
        <mxCell id="q9O66fsoj4CQGOpoVoLm-154" style="edgeStyle=orthogonalEdgeStyle;rounded=0;orthogonalLoop=1;jettySize=auto;html=1;entryX=1;entryY=0.5;entryDx=0;entryDy=0;entryPerimeter=0;endArrow=none;endFill=0;" parent="1" source="q9O66fsoj4CQGOpoVoLm-151" target="q9O66fsoj4CQGOpoVoLm-153" edge="1">
          <mxGeometry relative="1" as="geometry" />
        </mxCell>
        <mxCell id="q9O66fsoj4CQGOpoVoLm-174" style="edgeStyle=orthogonalEdgeStyle;rounded=0;orthogonalLoop=1;jettySize=auto;html=1;exitX=1;exitY=0.5;exitDx=0;exitDy=0;entryX=0;entryY=0.5;entryDx=0;entryDy=0;endArrow=none;endFill=0;" parent="1" source="q9O66fsoj4CQGOpoVoLm-173" edge="1" target="DYfATxnQDK458sTT8Pim-39">
          <mxGeometry relative="1" as="geometry">
            <mxPoint x="480" y="630" as="targetPoint" />
          </mxGeometry>
        </mxCell>
        <mxCell id="DYfATxnQDK458sTT8Pim-74" value="VClamp Ctrl" style="edgeLabel;html=1;align=center;verticalAlign=middle;resizable=0;points=[];" vertex="1" connectable="0" parent="q9O66fsoj4CQGOpoVoLm-174">
          <mxGeometry x="0.0777" y="2" relative="1" as="geometry">
            <mxPoint as="offset" />
          </mxGeometry>
        </mxCell>
        <mxCell id="q9O66fsoj4CQGOpoVoLm-222" style="edgeStyle=orthogonalEdgeStyle;rounded=0;orthogonalLoop=1;jettySize=auto;html=1;exitX=0;exitY=0.5;exitDx=0;exitDy=0;" parent="1" source="q9O66fsoj4CQGOpoVoLm-183" edge="1">
          <mxGeometry relative="1" as="geometry">
            <mxPoint x="840" y="877.3939393939395" as="targetPoint" />
          </mxGeometry>
        </mxCell>
        <mxCell id="q9O66fsoj4CQGOpoVoLm-223" value="12V Rail" style="edgeLabel;html=1;align=center;verticalAlign=middle;resizable=0;points=[];" parent="q9O66fsoj4CQGOpoVoLm-222" vertex="1" connectable="0">
          <mxGeometry x="0.8859" relative="1" as="geometry">
            <mxPoint x="32" as="offset" />
          </mxGeometry>
        </mxCell>
        <mxCell id="q9O66fsoj4CQGOpoVoLm-183" value="" style="shape=stencil(pZRbDsIgEEVXw6+hoAswqPvAOloiQgP42r200yZ9WFLrT5O5N5wZLpMSLnwhSyCMFoTvCGOMxk8sn1ium1L6EvKA2kM6JY8a0PHB2Ss81Sk0BGUKcCpULt8TuiUVkhIucmtMhChrfM/p+BEmlYln6QthTft3U602WJexww0CONQzVAk7zAZn/4C5iMrUdbg4yvx6cfZuTl/HKWUV1cho7Zt9QGfOQQI0ddUWoZWZRrAFCN5HZLMQubYeEs8S9VEUtTqRHxdn6yAR7FlpjeuY6PpT+kuunQx/HqI/xCD8/59vHiI5xJIo1r8gvq9H602+cn1stCa1ij+6WvgA);whiteSpace=wrap;html=1;spacingTop=10;spacing=0;spacingLeft=25;align=left;verticalAlign=top;fillColor=none;rotation=-180;" parent="1" vertex="1">
          <mxGeometry x="760" y="869.95" width="40" height="15" as="geometry" />
        </mxCell>
        <mxCell id="q9O66fsoj4CQGOpoVoLm-205" value="" style="group" parent="1" vertex="1" connectable="0">
          <mxGeometry x="80" y="640" width="120" height="80" as="geometry" />
        </mxCell>
        <mxCell id="q9O66fsoj4CQGOpoVoLm-200" value="" style="rounded=0;whiteSpace=wrap;html=1;" parent="q9O66fsoj4CQGOpoVoLm-205" vertex="1">
          <mxGeometry x="40" width="80" height="80" as="geometry" />
        </mxCell>
        <mxCell id="q9O66fsoj4CQGOpoVoLm-198" value="EN" style="ellipse;whiteSpace=wrap;html=1;aspect=fixed;" parent="q9O66fsoj4CQGOpoVoLm-205" vertex="1">
          <mxGeometry width="80" height="80" as="geometry" />
        </mxCell>
        <mxCell id="q9O66fsoj4CQGOpoVoLm-201" value="A" style="rounded=0;whiteSpace=wrap;html=1;" parent="q9O66fsoj4CQGOpoVoLm-205" vertex="1">
          <mxGeometry x="90" width="30" height="20" as="geometry" />
        </mxCell>
        <mxCell id="q9O66fsoj4CQGOpoVoLm-202" value="B" style="rounded=0;whiteSpace=wrap;html=1;" parent="q9O66fsoj4CQGOpoVoLm-205" vertex="1">
          <mxGeometry x="90" y="20" width="30" height="20" as="geometry" />
        </mxCell>
        <mxCell id="q9O66fsoj4CQGOpoVoLm-203" value="GND" style="rounded=0;whiteSpace=wrap;html=1;" parent="q9O66fsoj4CQGOpoVoLm-205" vertex="1">
          <mxGeometry x="90" y="40" width="30" height="20" as="geometry" />
        </mxCell>
        <mxCell id="q9O66fsoj4CQGOpoVoLm-204" value="5V" style="rounded=0;whiteSpace=wrap;html=1;" parent="q9O66fsoj4CQGOpoVoLm-205" vertex="1">
          <mxGeometry x="90" y="60" width="30" height="20" as="geometry" />
        </mxCell>
        <mxCell id="q9O66fsoj4CQGOpoVoLm-206" style="edgeStyle=orthogonalEdgeStyle;rounded=0;orthogonalLoop=1;jettySize=auto;html=1;exitX=1;exitY=0.5;exitDx=0;exitDy=0;entryX=0;entryY=0.5;entryDx=0;entryDy=0;endArrow=none;endFill=0;" parent="1" source="q9O66fsoj4CQGOpoVoLm-201" target="q9O66fsoj4CQGOpoVoLm-194" edge="1">
          <mxGeometry relative="1" as="geometry" />
        </mxCell>
        <mxCell id="q9O66fsoj4CQGOpoVoLm-207" style="edgeStyle=orthogonalEdgeStyle;rounded=0;orthogonalLoop=1;jettySize=auto;html=1;exitX=1;exitY=0.5;exitDx=0;exitDy=0;entryX=0;entryY=0.5;entryDx=0;entryDy=0;endArrow=none;endFill=0;" parent="1" source="q9O66fsoj4CQGOpoVoLm-202" target="q9O66fsoj4CQGOpoVoLm-195" edge="1">
          <mxGeometry relative="1" as="geometry" />
        </mxCell>
        <mxCell id="q9O66fsoj4CQGOpoVoLm-209" style="edgeStyle=orthogonalEdgeStyle;rounded=0;orthogonalLoop=1;jettySize=auto;html=1;exitX=1;exitY=0.5;exitDx=0;exitDy=0;entryX=0;entryY=0.5;entryDx=0;entryDy=0;endArrow=none;endFill=0;" parent="1" source="q9O66fsoj4CQGOpoVoLm-203" target="q9O66fsoj4CQGOpoVoLm-196" edge="1">
          <mxGeometry relative="1" as="geometry" />
        </mxCell>
        <mxCell id="q9O66fsoj4CQGOpoVoLm-210" style="edgeStyle=orthogonalEdgeStyle;rounded=0;orthogonalLoop=1;jettySize=auto;html=1;exitX=1;exitY=0.5;exitDx=0;exitDy=0;entryX=0;entryY=0.5;entryDx=0;entryDy=0;endArrow=none;endFill=0;" parent="1" source="q9O66fsoj4CQGOpoVoLm-204" target="q9O66fsoj4CQGOpoVoLm-197" edge="1">
          <mxGeometry relative="1" as="geometry" />
        </mxCell>
        <mxCell id="q9O66fsoj4CQGOpoVoLm-143" value="" style="rounded=0;whiteSpace=wrap;html=1;fillColor=#f8cecc;strokeColor=#b85450;" parent="1" vertex="1">
          <mxGeometry x="240" y="560" width="200" height="240" as="geometry" />
        </mxCell>
        <mxCell id="q9O66fsoj4CQGOpoVoLm-144" value="M1A" style="rounded=0;whiteSpace=wrap;html=1;fillColor=#f8cecc;strokeColor=#b85450;" parent="1" vertex="1">
          <mxGeometry x="240" y="560" width="40" height="20" as="geometry" />
        </mxCell>
        <mxCell id="q9O66fsoj4CQGOpoVoLm-145" value="M1B" style="rounded=0;whiteSpace=wrap;html=1;fillColor=#f8cecc;strokeColor=#b85450;" parent="1" vertex="1">
          <mxGeometry x="240" y="620" width="40" height="20" as="geometry" />
        </mxCell>
        <mxCell id="q9O66fsoj4CQGOpoVoLm-149" value="S4" style="rounded=0;whiteSpace=wrap;html=1;fillColor=#f8cecc;strokeColor=#b85450;" parent="1" vertex="1">
          <mxGeometry x="400" y="560" width="40" height="20" as="geometry" />
        </mxCell>
        <mxCell id="q9O66fsoj4CQGOpoVoLm-173" value="S4" style="rounded=0;whiteSpace=wrap;html=1;fillColor=#f8cecc;strokeColor=#b85450;" parent="1" vertex="1">
          <mxGeometry x="400" y="660" width="40" height="20" as="geometry" />
        </mxCell>
        <mxCell id="q9O66fsoj4CQGOpoVoLm-176" value="B+" style="rounded=0;whiteSpace=wrap;html=1;fillColor=#f8cecc;strokeColor=#b85450;" parent="1" vertex="1">
          <mxGeometry x="400" y="780" width="40" height="20" as="geometry" />
        </mxCell>
        <mxCell id="DYfATxnQDK458sTT8Pim-133" style="edgeStyle=orthogonalEdgeStyle;rounded=0;orthogonalLoop=1;jettySize=auto;html=1;entryX=0;entryY=0.5;entryDx=0;entryDy=0;" edge="1" parent="1" source="q9O66fsoj4CQGOpoVoLm-177" target="DYfATxnQDK458sTT8Pim-32">
          <mxGeometry relative="1" as="geometry">
            <Array as="points">
              <mxPoint x="710" y="750" />
              <mxPoint x="710" y="730" />
            </Array>
          </mxGeometry>
        </mxCell>
        <mxCell id="q9O66fsoj4CQGOpoVoLm-177" value="B-" style="rounded=0;whiteSpace=wrap;html=1;fillColor=#f8cecc;strokeColor=#b85450;" parent="1" vertex="1">
          <mxGeometry x="400" y="740" width="40" height="20" as="geometry" />
        </mxCell>
        <mxCell id="q9O66fsoj4CQGOpoVoLm-193" value="&lt;div&gt;RoboClaw &lt;br&gt;&lt;/div&gt;&lt;div&gt;IMC404&lt;/div&gt;" style="rounded=0;whiteSpace=wrap;html=1;fillColor=#f8cecc;strokeColor=#b85450;" parent="1" vertex="1">
          <mxGeometry x="280" y="560" width="120" height="240" as="geometry" />
        </mxCell>
        <mxCell id="q9O66fsoj4CQGOpoVoLm-194" value="EN1A" style="rounded=0;whiteSpace=wrap;html=1;fillColor=#f8cecc;strokeColor=#b85450;" parent="1" vertex="1">
          <mxGeometry x="240" y="640" width="40" height="20" as="geometry" />
        </mxCell>
        <mxCell id="q9O66fsoj4CQGOpoVoLm-195" value="EN1B" style="rounded=0;whiteSpace=wrap;html=1;fillColor=#f8cecc;strokeColor=#b85450;" parent="1" vertex="1">
          <mxGeometry x="240" y="660" width="40" height="20" as="geometry" />
        </mxCell>
        <mxCell id="q9O66fsoj4CQGOpoVoLm-196" value="GND" style="rounded=0;whiteSpace=wrap;html=1;fillColor=#f8cecc;strokeColor=#b85450;" parent="1" vertex="1">
          <mxGeometry x="240" y="680" width="40" height="20" as="geometry" />
        </mxCell>
        <mxCell id="q9O66fsoj4CQGOpoVoLm-197" value="5V" style="rounded=0;whiteSpace=wrap;html=1;fillColor=#f8cecc;strokeColor=#b85450;" parent="1" vertex="1">
          <mxGeometry x="240" y="700" width="40" height="20" as="geometry" />
        </mxCell>
        <mxCell id="DYfATxnQDK458sTT8Pim-123" style="edgeStyle=orthogonalEdgeStyle;rounded=0;orthogonalLoop=1;jettySize=auto;html=1;exitX=0;exitY=0.5;exitDx=0;exitDy=0;" edge="1" parent="1" source="q9O66fsoj4CQGOpoVoLm-225">
          <mxGeometry relative="1" as="geometry">
            <mxPoint x="120" y="750" as="targetPoint" />
          </mxGeometry>
        </mxCell>
        <mxCell id="DYfATxnQDK458sTT8Pim-124" value="PA9" style="edgeLabel;html=1;align=center;verticalAlign=middle;resizable=0;points=[];" vertex="1" connectable="0" parent="DYfATxnQDK458sTT8Pim-123">
          <mxGeometry x="0.9748" relative="1" as="geometry">
            <mxPoint x="-16" as="offset" />
          </mxGeometry>
        </mxCell>
        <mxCell id="DYfATxnQDK458sTT8Pim-127" value="RX" style="edgeLabel;html=1;align=center;verticalAlign=middle;resizable=0;points=[];" vertex="1" connectable="0" parent="DYfATxnQDK458sTT8Pim-123">
          <mxGeometry x="-0.1437" y="1" relative="1" as="geometry">
            <mxPoint x="-9" as="offset" />
          </mxGeometry>
        </mxCell>
        <mxCell id="q9O66fsoj4CQGOpoVoLm-225" value="S2" style="rounded=0;whiteSpace=wrap;html=1;fillColor=#f8cecc;strokeColor=#b85450;" parent="1" vertex="1">
          <mxGeometry x="240" y="740" width="40" height="20" as="geometry" />
        </mxCell>
        <mxCell id="DYfATxnQDK458sTT8Pim-125" style="edgeStyle=orthogonalEdgeStyle;rounded=0;orthogonalLoop=1;jettySize=auto;html=1;exitX=0;exitY=0.5;exitDx=0;exitDy=0;" edge="1" parent="1" source="q9O66fsoj4CQGOpoVoLm-227">
          <mxGeometry relative="1" as="geometry">
            <mxPoint x="120" y="770" as="targetPoint" />
          </mxGeometry>
        </mxCell>
        <mxCell id="DYfATxnQDK458sTT8Pim-126" value="PA10" style="edgeLabel;html=1;align=center;verticalAlign=middle;resizable=0;points=[];" vertex="1" connectable="0" parent="DYfATxnQDK458sTT8Pim-125">
          <mxGeometry x="1" y="1" relative="1" as="geometry">
            <mxPoint x="-20" y="-1" as="offset" />
          </mxGeometry>
        </mxCell>
        <mxCell id="DYfATxnQDK458sTT8Pim-128" value="TX" style="edgeLabel;html=1;align=center;verticalAlign=middle;resizable=0;points=[];" vertex="1" connectable="0" parent="DYfATxnQDK458sTT8Pim-125">
          <mxGeometry x="0.1261" relative="1" as="geometry">
            <mxPoint x="8" as="offset" />
          </mxGeometry>
        </mxCell>
        <mxCell id="q9O66fsoj4CQGOpoVoLm-227" value="S1" style="rounded=0;whiteSpace=wrap;html=1;fillColor=#f8cecc;strokeColor=#b85450;" parent="1" vertex="1">
          <mxGeometry x="240" y="760" width="40" height="20" as="geometry" />
        </mxCell>
        <mxCell id="DYfATxnQDK458sTT8Pim-3" value="" style="shape=stencil(tZRNDoIwEIVP063pj7g3qPcoOEojtKRU1NtbqBgr1CjChmTey3y8ZqZFLK4yXgKiOENsgyil2H5sefFLXpWQGqfVXAue5OCcymh1govYmwdByAy0MI3LtgivUcPAiMWpktJChJKV57z4FsaFtL346mCP39+8qrT8AgxopxKnIrr7HruI5gGTmfL62C795HmnA/uJyVyDmwxMxmNZbJXQcrM44enpqNVZ7vtdQe+gNAwYT1vkubt4H45Z8uZK9ozOLlQNL+cfvGnD6I6QCxkmRL8Tlv8C3iIQOgKxmjjER0K7BIE52ac5NOG2rbcireqe81a4Aw==);whiteSpace=wrap;html=1;" vertex="1" parent="1">
          <mxGeometry x="470" y="140" width="20" height="20" as="geometry" />
        </mxCell>
        <mxCell id="q9O66fsoj4CQGOpoVoLm-139" value="Power Distribution" style="rounded=0;whiteSpace=wrap;html=1;fillColor=#f5f5f5;fontColor=#333333;strokeColor=#666666;" parent="1" vertex="1">
          <mxGeometry x="-50" y="-210" width="120" height="30" as="geometry" />
        </mxCell>
        <mxCell id="q9O66fsoj4CQGOpoVoLm-115" value="" style="group" parent="1" vertex="1" connectable="0">
          <mxGeometry x="460" y="-90" width="120" height="40" as="geometry" />
        </mxCell>
        <mxCell id="q9O66fsoj4CQGOpoVoLm-109" value="" style="rounded=0;whiteSpace=wrap;html=1;fillColor=#f8cecc;strokeColor=#b85450;" parent="q9O66fsoj4CQGOpoVoLm-115" vertex="1">
          <mxGeometry width="120" height="40" as="geometry" />
        </mxCell>
        <mxCell id="q9O66fsoj4CQGOpoVoLm-110" value="IN" style="rounded=0;whiteSpace=wrap;html=1;fillColor=#f8cecc;strokeColor=#b85450;" parent="q9O66fsoj4CQGOpoVoLm-115" vertex="1">
          <mxGeometry width="30" height="20" as="geometry" />
        </mxCell>
        <mxCell id="q9O66fsoj4CQGOpoVoLm-111" value="GND" style="rounded=0;whiteSpace=wrap;html=1;fillColor=#f8cecc;strokeColor=#b85450;" parent="q9O66fsoj4CQGOpoVoLm-115" vertex="1">
          <mxGeometry y="20" width="30" height="20" as="geometry" />
        </mxCell>
        <mxCell id="q9O66fsoj4CQGOpoVoLm-125" style="edgeStyle=orthogonalEdgeStyle;rounded=0;orthogonalLoop=1;jettySize=auto;html=1;exitX=1;exitY=0.5;exitDx=0;exitDy=0;" parent="q9O66fsoj4CQGOpoVoLm-115" source="q9O66fsoj4CQGOpoVoLm-112" edge="1">
          <mxGeometry relative="1" as="geometry">
            <mxPoint x="170" y="20.06976744186045" as="targetPoint" />
          </mxGeometry>
        </mxCell>
        <mxCell id="q9O66fsoj4CQGOpoVoLm-126" value="5V Rail" style="edgeLabel;html=1;align=center;verticalAlign=middle;resizable=0;points=[];" parent="q9O66fsoj4CQGOpoVoLm-125" vertex="1" connectable="0">
          <mxGeometry x="0.7833" y="1" relative="1" as="geometry">
            <mxPoint x="27" as="offset" />
          </mxGeometry>
        </mxCell>
        <mxCell id="q9O66fsoj4CQGOpoVoLm-112" value="OUT" style="rounded=0;whiteSpace=wrap;html=1;fillColor=#f8cecc;strokeColor=#b85450;" parent="q9O66fsoj4CQGOpoVoLm-115" vertex="1">
          <mxGeometry x="90" width="30" height="40" as="geometry" />
        </mxCell>
        <mxCell id="q9O66fsoj4CQGOpoVoLm-113" value="5V REG" style="rounded=0;whiteSpace=wrap;html=1;fillColor=#f8cecc;strokeColor=#b85450;" parent="q9O66fsoj4CQGOpoVoLm-115" vertex="1">
          <mxGeometry x="30" width="60" height="40" as="geometry" />
        </mxCell>
        <mxCell id="q9O66fsoj4CQGOpoVoLm-120" style="edgeStyle=orthogonalEdgeStyle;rounded=0;orthogonalLoop=1;jettySize=auto;html=1;exitX=0.5;exitY=0;exitDx=0;exitDy=0;endArrow=none;endFill=0;entryX=0;entryY=0.5;entryDx=0;entryDy=0;" parent="1" source="DYfATxnQDK458sTT8Pim-4" target="q9O66fsoj4CQGOpoVoLm-111" edge="1">
          <mxGeometry relative="1" as="geometry">
            <mxPoint x="450" y="10" as="targetPoint" />
            <Array as="points">
              <mxPoint x="430" y="-60" />
            </Array>
            <mxPoint x="430" y="-50" as="sourcePoint" />
          </mxGeometry>
        </mxCell>
        <mxCell id="DYfATxnQDK458sTT8Pim-4" value="" style="shape=stencil(tZRNDoIwEIVP063pj7g3qPcoOEojtKRU1NtbqBgr1CjChmTey3y8ZqZFLK4yXgKiOENsgyil2H5sefFLXpWQGqfVXAue5OCcymh1govYmwdByAy0MI3LtgivUcPAiMWpktJChJKV57z4FsaFtL346mCP39+8qrT8AgxopxKnIrr7HruI5gGTmfL62C795HmnA/uJyVyDmwxMxmNZbJXQcrM44enpqNVZ7vtdQe+gNAwYT1vkubt4H45Z8uZK9ozOLlQNL+cfvGnD6I6QCxkmRL8Tlv8C3iIQOgKxmjjER0K7BIE52ac5NOG2rbcireqe81a4Aw==);whiteSpace=wrap;html=1;" vertex="1" parent="1">
          <mxGeometry x="420" y="-45" width="20" height="20" as="geometry" />
        </mxCell>
        <mxCell id="DYfATxnQDK458sTT8Pim-6" value="" style="shape=stencil(tZRNDoIwEIVP063pj7g3qPcoOEojtKRU1NtbqBgr1CjChmTey3y8ZqZFLK4yXgKiOENsgyil2H5sefFLXpWQGqfVXAue5OCcymh1govYmwdByAy0MI3LtgivUcPAiMWpktJChJKV57z4FsaFtL346mCP39+8qrT8AgxopxKnIrr7HruI5gGTmfL62C795HmnA/uJyVyDmwxMxmNZbJXQcrM44enpqNVZ7vtdQe+gNAwYT1vkubt4H45Z8uZK9ozOLlQNL+cfvGnD6I6QCxkmRL8Tlv8C3iIQOgKxmjjER0K7BIE52ac5NOG2rbcireqe81a4Aw==);whiteSpace=wrap;html=1;" vertex="1" parent="1">
          <mxGeometry x="40" y="10" width="20" height="20" as="geometry" />
        </mxCell>
        <mxCell id="DYfATxnQDK458sTT8Pim-8" value="" style="shape=stencil(tZRNDoIwEIVP063pj7g3qPcoOEojtKRU1NtbqBgr1CjChmTey3y8ZqZFLK4yXgKiOENsgyil2H5sefFLXpWQGqfVXAue5OCcymh1govYmwdByAy0MI3LtgivUcPAiMWpktJChJKV57z4FsaFtL346mCP39+8qrT8AgxopxKnIrr7HruI5gGTmfL62C795HmnA/uJyVyDmwxMxmNZbJXQcrM44enpqNVZ7vtdQe+gNAwYT1vkubt4H45Z8uZK9ozOLlQNL+cfvGnD6I6QCxkmRL8Tlv8C3iIQOgKxmjjER0K7BIE52ac5NOG2rbcireqe81a4Aw==);whiteSpace=wrap;html=1;" vertex="1" parent="1">
          <mxGeometry x="30" y="350" width="20" height="20" as="geometry" />
        </mxCell>
        <mxCell id="DYfATxnQDK458sTT8Pim-12" style="edgeStyle=orthogonalEdgeStyle;rounded=0;orthogonalLoop=1;jettySize=auto;html=1;exitX=1;exitY=0.5;exitDx=0;exitDy=0;entryX=0.5;entryY=0;entryDx=0;entryDy=0;endArrow=none;endFill=0;" edge="1" parent="1" source="DiAU9s5X7gYXEooud-6u-49" target="DYfATxnQDK458sTT8Pim-8">
          <mxGeometry relative="1" as="geometry">
            <Array as="points">
              <mxPoint x="30" y="350" />
              <mxPoint x="30" y="350" />
            </Array>
          </mxGeometry>
        </mxCell>
        <mxCell id="DYfATxnQDK458sTT8Pim-13" value="" style="shape=stencil(tZRNDoIwEIVP063pj7g3qPcoOEojtKRU1NtbqBgr1CjChmTey3y8ZqZFLK4yXgKiOENsgyil2H5sefFLXpWQGqfVXAue5OCcymh1govYmwdByAy0MI3LtgivUcPAiMWpktJChJKV57z4FsaFtL346mCP39+8qrT8AgxopxKnIrr7HruI5gGTmfL62C795HmnA/uJyVyDmwxMxmNZbJXQcrM44enpqNVZ7vtdQe+gNAwYT1vkubt4H45Z8uZK9ozOLlQNL+cfvGnD6I6QCxkmRL8Tlv8C3iIQOgKxmjjER0K7BIE52ac5NOG2rbcireqe81a4Aw==);whiteSpace=wrap;html=1;" vertex="1" parent="1">
          <mxGeometry x="60" y="30" width="20" height="20" as="geometry" />
        </mxCell>
        <mxCell id="DYfATxnQDK458sTT8Pim-17" style="edgeStyle=orthogonalEdgeStyle;rounded=0;orthogonalLoop=1;jettySize=auto;html=1;exitX=0.5;exitY=0;exitDx=0;exitDy=0;entryX=0;entryY=0.5;entryDx=0;entryDy=0;endArrow=none;endFill=0;" edge="1" parent="1" source="DYfATxnQDK458sTT8Pim-16" target="DiAU9s5X7gYXEooud-6u-102">
          <mxGeometry relative="1" as="geometry" />
        </mxCell>
        <mxCell id="DYfATxnQDK458sTT8Pim-16" value="" style="shape=stencil(tZRNDoIwEIVP063pj7g3qPcoOEojtKRU1NtbqBgr1CjChmTey3y8ZqZFLK4yXgKiOENsgyil2H5sefFLXpWQGqfVXAue5OCcymh1govYmwdByAy0MI3LtgivUcPAiMWpktJChJKV57z4FsaFtL346mCP39+8qrT8AgxopxKnIrr7HruI5gGTmfL62C795HmnA/uJyVyDmwxMxmNZbJXQcrM44enpqNVZ7vtdQe+gNAwYT1vkubt4H45Z8uZK9ozOLlQNL+cfvGnD6I6QCxkmRL8Tlv8C3iIQOgKxmjjER0K7BIE52ac5NOG2rbcireqe81a4Aw==);whiteSpace=wrap;html=1;" vertex="1" parent="1">
          <mxGeometry x="580.05" y="370" width="20" height="20" as="geometry" />
        </mxCell>
        <mxCell id="DYfATxnQDK458sTT8Pim-18" value="" style="shape=stencil(tZRNDoIwEIVP063pj7g3qPcoOEojtKRU1NtbqBgr1CjChmTey3y8ZqZFLK4yXgKiOENsgyil2H5sefFLXpWQGqfVXAue5OCcymh1govYmwdByAy0MI3LtgivUcPAiMWpktJChJKV57z4FsaFtL346mCP39+8qrT8AgxopxKnIrr7HruI5gGTmfL62C795HmnA/uJyVyDmwxMxmNZbJXQcrM44enpqNVZ7vtdQe+gNAwYT1vkubt4H45Z8uZK9ozOLlQNL+cfvGnD6I6QCxkmRL8Tlv8C3iIQOgKxmjjER0K7BIE52ac5NOG2rbcireqe81a4Aw==);whiteSpace=wrap;html=1;" vertex="1" parent="1">
          <mxGeometry x="670" y="630" width="20" height="20" as="geometry" />
        </mxCell>
        <mxCell id="DYfATxnQDK458sTT8Pim-19" style="edgeStyle=orthogonalEdgeStyle;rounded=0;orthogonalLoop=1;jettySize=auto;html=1;exitX=1;exitY=1;exitDx=0;exitDy=0;entryX=0.5;entryY=0;entryDx=0;entryDy=0;endArrow=none;endFill=0;" edge="1" parent="1" source="DYfATxnQDK458sTT8Pim-24" target="DYfATxnQDK458sTT8Pim-18">
          <mxGeometry relative="1" as="geometry">
            <mxPoint x="630" y="575" as="sourcePoint" />
            <Array as="points">
              <mxPoint x="680" y="570" />
            </Array>
          </mxGeometry>
        </mxCell>
        <mxCell id="DYfATxnQDK458sTT8Pim-22" value="&amp;nbsp;" style="text;whiteSpace=wrap;html=1;" vertex="1" parent="1">
          <mxGeometry x="2380" y="4020" width="40" height="40" as="geometry" />
        </mxCell>
        <mxCell id="DYfATxnQDK458sTT8Pim-24" value="" style="shape=stencil(zZTRbsMgDEW/hsdJBB7WPk7Z9h80dRerFBDQdvv7OiGpwlK2aFulSVEk+4YT44thsg6tcsAEb5l8ZkJITi8Kzyms+BCr4KCJKXlSHtVGQ1JC9HYPZ9zGAYGmBY+xU+UL40/0TffIurHGEAStCZky0Qmm0NBa/p5gw+8/hnJS5Ih/gAg+yzLxuhhb/Rwra8qUtiLrjWr2b94ezXa+qqjtrIcbwlVGrVObv9imU50BM2GUD/YEpbaOpt9GjwSNZkL4A8RjjlhEyLex+n0R1xO+iNHbWOg0zdJ3Hi0yErRGF6YlrrMKxTobUZGiNotK7DtV+MnJh+r/Vbi6fw/7wzEb5T6bbtk+cQE=);whiteSpace=wrap;html=1;" vertex="1" parent="1">
          <mxGeometry x="590" y="560" width="40" height="10" as="geometry" />
        </mxCell>
        <mxCell id="DYfATxnQDK458sTT8Pim-53" style="edgeStyle=orthogonalEdgeStyle;rounded=0;orthogonalLoop=1;jettySize=auto;html=1;entryX=0;entryY=0.5;entryDx=0;entryDy=0;endArrow=none;endFill=0;" edge="1" parent="1" source="DYfATxnQDK458sTT8Pim-49" target="DYfATxnQDK458sTT8Pim-30">
          <mxGeometry relative="1" as="geometry">
            <Array as="points">
              <mxPoint x="730" y="750" />
            </Array>
          </mxGeometry>
        </mxCell>
        <mxCell id="DYfATxnQDK458sTT8Pim-49" value="" style="shape=waypoint;sketch=0;size=6;pointerEvents=1;points=[];fillColor=none;resizable=0;rotatable=0;perimeter=centerPerimeter;snapToPoint=1;" vertex="1" parent="1">
          <mxGeometry x="720" y="780" width="20" height="20" as="geometry" />
        </mxCell>
        <mxCell id="DYfATxnQDK458sTT8Pim-51" style="edgeStyle=orthogonalEdgeStyle;rounded=0;orthogonalLoop=1;jettySize=auto;html=1;entryX=0.593;entryY=0.707;entryDx=0;entryDy=0;entryPerimeter=0;endArrow=none;endFill=0;" edge="1" parent="1" source="q9O66fsoj4CQGOpoVoLm-85" target="DYfATxnQDK458sTT8Pim-49">
          <mxGeometry relative="1" as="geometry" />
        </mxCell>
        <mxCell id="DYfATxnQDK458sTT8Pim-52" style="edgeStyle=orthogonalEdgeStyle;rounded=0;orthogonalLoop=1;jettySize=auto;html=1;entryX=0;entryY=0.5;entryDx=0;entryDy=0;entryPerimeter=0;endArrow=none;endFill=0;" edge="1" parent="1" source="DYfATxnQDK458sTT8Pim-49" target="q9O66fsoj4CQGOpoVoLm-82">
          <mxGeometry relative="1" as="geometry" />
        </mxCell>
        <mxCell id="DYfATxnQDK458sTT8Pim-61" style="edgeStyle=orthogonalEdgeStyle;rounded=0;orthogonalLoop=1;jettySize=auto;html=1;exitX=0.5;exitY=0;exitDx=0;exitDy=0;entryX=0;entryY=0.5;entryDx=0;entryDy=0;endArrow=none;endFill=0;" edge="1" parent="1" source="DYfATxnQDK458sTT8Pim-59" target="DYfATxnQDK458sTT8Pim-36">
          <mxGeometry relative="1" as="geometry">
            <Array as="points">
              <mxPoint x="680" y="710" />
            </Array>
          </mxGeometry>
        </mxCell>
        <mxCell id="DYfATxnQDK458sTT8Pim-59" value="" style="shape=stencil(tZRNDoIwEIVP063pj7g3qPcoOEojtKRU1NtbqBgr1CjChmTey3y8ZqZFLK4yXgKiOENsgyil2H5sefFLXpWQGqfVXAue5OCcymh1govYmwdByAy0MI3LtgivUcPAiMWpktJChJKV57z4FsaFtL346mCP39+8qrT8AgxopxKnIrr7HruI5gGTmfL62C795HmnA/uJyVyDmwxMxmNZbJXQcrM44enpqNVZ7vtdQe+gNAwYT1vkubt4H45Z8uZK9ozOLlQNL+cfvGnD6I6QCxkmRL8Tlv8C3iIQOgKxmjjER0K7BIE52ac5NOG2rbcireqe81a4Aw==);whiteSpace=wrap;html=1;" vertex="1" parent="1">
          <mxGeometry x="670" y="710" width="20" height="30" as="geometry" />
        </mxCell>
        <mxCell id="DYfATxnQDK458sTT8Pim-54" style="edgeStyle=orthogonalEdgeStyle;rounded=0;orthogonalLoop=1;jettySize=auto;html=1;exitX=0;exitY=0.5;exitDx=0;exitDy=0;" edge="1" parent="1" source="DYfATxnQDK458sTT8Pim-35">
          <mxGeometry relative="1" as="geometry">
            <mxPoint x="680" y="690" as="targetPoint" />
          </mxGeometry>
        </mxCell>
        <mxCell id="DYfATxnQDK458sTT8Pim-55" value="5V Rail" style="edgeLabel;html=1;align=center;verticalAlign=middle;resizable=0;points=[];" vertex="1" connectable="0" parent="DYfATxnQDK458sTT8Pim-54">
          <mxGeometry x="0.9012" y="-1" relative="1" as="geometry">
            <mxPoint x="-23" y="1" as="offset" />
          </mxGeometry>
        </mxCell>
        <mxCell id="DYfATxnQDK458sTT8Pim-62" value="" style="group" vertex="1" connectable="0" parent="1">
          <mxGeometry x="760" y="660" width="120" height="100" as="geometry" />
        </mxCell>
        <mxCell id="DYfATxnQDK458sTT8Pim-28" value="" style="group;fillColor=#d5e8d4;strokeColor=#82b366;fontSize=10;container=0;" vertex="1" connectable="0" parent="DYfATxnQDK458sTT8Pim-62">
          <mxGeometry width="120" height="100" as="geometry" />
        </mxCell>
        <mxCell id="DYfATxnQDK458sTT8Pim-37" value="VCLAMP" style="rounded=0;whiteSpace=wrap;html=1;fillColor=#d5e8d4;strokeColor=#82b366;container=0;" vertex="1" parent="DYfATxnQDK458sTT8Pim-62">
          <mxGeometry x="40" width="80" height="100" as="geometry" />
        </mxCell>
        <mxCell id="DYfATxnQDK458sTT8Pim-29" value="R1A" style="rounded=0;whiteSpace=wrap;html=1;fillColor=#d5e8d4;strokeColor=#82b366;container=0;" vertex="1" parent="DYfATxnQDK458sTT8Pim-62">
          <mxGeometry x="80" width="40" height="20" as="geometry" />
        </mxCell>
        <mxCell id="DYfATxnQDK458sTT8Pim-30" value="B+" style="rounded=0;whiteSpace=wrap;html=1;fillColor=#d5e8d4;strokeColor=#82b366;container=0;" vertex="1" parent="DYfATxnQDK458sTT8Pim-62">
          <mxGeometry y="80" width="40" height="20" as="geometry" />
        </mxCell>
        <mxCell id="DYfATxnQDK458sTT8Pim-31" value="R1B" style="rounded=0;whiteSpace=wrap;html=1;fillColor=#d5e8d4;strokeColor=#82b366;container=0;" vertex="1" parent="DYfATxnQDK458sTT8Pim-62">
          <mxGeometry x="80" y="80" width="40" height="20" as="geometry" />
        </mxCell>
        <mxCell id="DYfATxnQDK458sTT8Pim-32" value="B-" style="rounded=0;whiteSpace=wrap;html=1;fillColor=#d5e8d4;strokeColor=#82b366;container=0;" vertex="1" parent="DYfATxnQDK458sTT8Pim-62">
          <mxGeometry y="60" width="40" height="20" as="geometry" />
        </mxCell>
        <mxCell id="DYfATxnQDK458sTT8Pim-35" value="5V IN" style="rounded=0;whiteSpace=wrap;html=1;fillColor=#d5e8d4;strokeColor=#82b366;container=0;" vertex="1" parent="DYfATxnQDK458sTT8Pim-62">
          <mxGeometry y="20" width="40" height="20" as="geometry" />
        </mxCell>
        <mxCell id="DYfATxnQDK458sTT8Pim-36" value="GND" style="rounded=0;whiteSpace=wrap;html=1;fillColor=#d5e8d4;strokeColor=#82b366;container=0;" vertex="1" parent="DYfATxnQDK458sTT8Pim-62">
          <mxGeometry y="40" width="40" height="20" as="geometry" />
        </mxCell>
        <mxCell id="DYfATxnQDK458sTT8Pim-39" value="CTRL" style="rounded=0;whiteSpace=wrap;html=1;fillColor=#d5e8d4;strokeColor=#82b366;container=0;" vertex="1" parent="DYfATxnQDK458sTT8Pim-62">
          <mxGeometry width="40" height="20" as="geometry" />
        </mxCell>
        <mxCell id="DYfATxnQDK458sTT8Pim-69" style="edgeStyle=orthogonalEdgeStyle;rounded=0;orthogonalLoop=1;jettySize=auto;html=1;exitX=1;exitY=0.5;exitDx=0;exitDy=0;exitPerimeter=0;entryX=1;entryY=0.5;entryDx=0;entryDy=0;endArrow=none;endFill=0;" edge="1" parent="1" source="DYfATxnQDK458sTT8Pim-64" target="DYfATxnQDK458sTT8Pim-29">
          <mxGeometry relative="1" as="geometry">
            <Array as="points">
              <mxPoint x="920" y="670" />
            </Array>
          </mxGeometry>
        </mxCell>
        <mxCell id="DYfATxnQDK458sTT8Pim-64" value="1" style="pointerEvents=1;verticalLabelPosition=middle;shadow=0;dashed=0;align=left;html=1;verticalAlign=top;shape=mxgraph.electrical.resistors.resistor_2;labelPosition=center;spacingBottom=0;spacingLeft=17;direction=west;spacing=0;spacingTop=10;points=[[0,0.5,0,0,0],[0.5,0,0,0,-3],[0.5,1,0,0,2],[1,0.5,0,0,0]];fillColor=none;rotation=90;horizontal=0;" vertex="1" parent="1">
          <mxGeometry x="900" y="705" width="40" height="10" as="geometry" />
        </mxCell>
        <mxCell id="DYfATxnQDK458sTT8Pim-70" style="edgeStyle=orthogonalEdgeStyle;rounded=0;orthogonalLoop=1;jettySize=auto;html=1;exitX=1;exitY=0.5;exitDx=0;exitDy=0;entryX=0;entryY=0.5;entryDx=0;entryDy=0;entryPerimeter=0;endArrow=none;endFill=0;" edge="1" parent="1" source="DYfATxnQDK458sTT8Pim-31" target="DYfATxnQDK458sTT8Pim-64">
          <mxGeometry relative="1" as="geometry" />
        </mxCell>
        <mxCell id="DiAU9s5X7gYXEooud-6u-243" style="edgeStyle=orthogonalEdgeStyle;rounded=0;orthogonalLoop=1;jettySize=auto;html=1;exitX=1;exitY=0.5;exitDx=0;exitDy=0;" parent="1" source="DiAU9s5X7gYXEooud-6u-48" edge="1">
          <mxGeometry relative="1" as="geometry">
            <mxPoint x="70" y="330.1428571428571" as="targetPoint" />
          </mxGeometry>
        </mxCell>
        <mxCell id="DiAU9s5X7gYXEooud-6u-244" value="5V Rail" style="edgeLabel;html=1;align=center;verticalAlign=middle;resizable=0;points=[];" parent="DiAU9s5X7gYXEooud-6u-243" vertex="1" connectable="0">
          <mxGeometry x="0.8336" y="-1" relative="1" as="geometry">
            <mxPoint x="36" y="-1" as="offset" />
          </mxGeometry>
        </mxCell>
        <mxCell id="DYfATxnQDK458sTT8Pim-78" value="" style="group" vertex="1" connectable="0" parent="1">
          <mxGeometry x="-120" y="320" width="120" height="80" as="geometry" />
        </mxCell>
        <mxCell id="DiAU9s5X7gYXEooud-6u-47" value="" style="rounded=0;whiteSpace=wrap;html=1;fillColor=#d5e8d4;strokeColor=#82b366;container=0;" parent="DYfATxnQDK458sTT8Pim-78" vertex="1">
          <mxGeometry width="120" height="80" as="geometry" />
        </mxCell>
        <mxCell id="DiAU9s5X7gYXEooud-6u-48" value="VCC" style="rounded=0;whiteSpace=wrap;html=1;fillColor=#d5e8d4;strokeColor=#82b366;container=0;" parent="DYfATxnQDK458sTT8Pim-78" vertex="1">
          <mxGeometry x="80" width="40" height="20" as="geometry" />
        </mxCell>
        <mxCell id="DiAU9s5X7gYXEooud-6u-49" value="GND" style="rounded=0;whiteSpace=wrap;html=1;fillColor=#d5e8d4;strokeColor=#82b366;container=0;" parent="DYfATxnQDK458sTT8Pim-78" vertex="1">
          <mxGeometry x="80" y="20" width="40" height="20" as="geometry" />
        </mxCell>
        <mxCell id="DiAU9s5X7gYXEooud-6u-50" value="SDA" style="rounded=0;whiteSpace=wrap;html=1;fillColor=#d5e8d4;strokeColor=#82b366;container=0;" parent="DYfATxnQDK458sTT8Pim-78" vertex="1">
          <mxGeometry x="80" y="60" width="40" height="20" as="geometry" />
        </mxCell>
        <mxCell id="DiAU9s5X7gYXEooud-6u-94" value="MPU-6050" style="rounded=0;whiteSpace=wrap;html=1;fillColor=#d5e8d4;strokeColor=#82b366;container=0;" parent="DYfATxnQDK458sTT8Pim-78" vertex="1">
          <mxGeometry width="80" height="80" as="geometry" />
        </mxCell>
        <mxCell id="DiAU9s5X7gYXEooud-6u-182" value="SCL" style="rounded=0;whiteSpace=wrap;html=1;fillColor=#d5e8d4;strokeColor=#82b366;container=0;" parent="DYfATxnQDK458sTT8Pim-78" vertex="1">
          <mxGeometry x="80" y="40" width="40" height="20" as="geometry" />
        </mxCell>
        <mxCell id="DYfATxnQDK458sTT8Pim-90" style="edgeStyle=orthogonalEdgeStyle;rounded=0;orthogonalLoop=1;jettySize=auto;html=1;entryX=1;entryY=0.5;entryDx=0;entryDy=0;entryPerimeter=0;endArrow=none;endFill=0;" edge="1" parent="1" source="DiAU9s5X7gYXEooud-6u-229" target="DiAU9s5X7gYXEooud-6u-227">
          <mxGeometry relative="1" as="geometry" />
        </mxCell>
        <mxCell id="DYfATxnQDK458sTT8Pim-93" style="edgeStyle=orthogonalEdgeStyle;rounded=0;orthogonalLoop=1;jettySize=auto;html=1;entryX=1;entryY=0.5;entryDx=0;entryDy=0;entryPerimeter=0;endArrow=none;endFill=0;" edge="1" parent="1" source="DiAU9s5X7gYXEooud-6u-215" target="DiAU9s5X7gYXEooud-6u-226">
          <mxGeometry relative="1" as="geometry" />
        </mxCell>
        <mxCell id="DYfATxnQDK458sTT8Pim-103" value="" style="shape=waypoint;sketch=0;size=6;pointerEvents=1;points=[];fillColor=none;resizable=0;rotatable=0;perimeter=centerPerimeter;snapToPoint=1;" vertex="1" parent="1">
          <mxGeometry x="110" y="480" width="20" height="20" as="geometry" />
        </mxCell>
        <mxCell id="DYfATxnQDK458sTT8Pim-107" style="edgeStyle=orthogonalEdgeStyle;rounded=0;orthogonalLoop=1;jettySize=auto;html=1;entryX=0.12;entryY=0.5;entryDx=0;entryDy=0;entryPerimeter=0;endArrow=none;endFill=0;" edge="1" parent="1" source="DiAU9s5X7gYXEooud-6u-22" target="DYfATxnQDK458sTT8Pim-103">
          <mxGeometry relative="1" as="geometry" />
        </mxCell>
        <mxCell id="DYfATxnQDK458sTT8Pim-110" style="edgeStyle=orthogonalEdgeStyle;rounded=0;orthogonalLoop=1;jettySize=auto;html=1;entryX=0;entryY=0.5;entryDx=0;entryDy=0;entryPerimeter=0;endArrow=none;endFill=0;" edge="1" parent="1" source="DYfATxnQDK458sTT8Pim-103" target="DiAU9s5X7gYXEooud-6u-226">
          <mxGeometry relative="1" as="geometry" />
        </mxCell>
        <mxCell id="DYfATxnQDK458sTT8Pim-112" style="edgeStyle=orthogonalEdgeStyle;rounded=0;orthogonalLoop=1;jettySize=auto;html=1;entryX=0.34;entryY=0.6;entryDx=0;entryDy=0;entryPerimeter=0;endArrow=none;endFill=0;" edge="1" parent="1" source="DiAU9s5X7gYXEooud-6u-227" target="DYfATxnQDK458sTT8Pim-103">
          <mxGeometry relative="1" as="geometry">
            <Array as="points">
              <mxPoint x="40" y="490" />
            </Array>
          </mxGeometry>
        </mxCell>
        <mxCell id="DYfATxnQDK458sTT8Pim-129" value="GND" style="rounded=0;whiteSpace=wrap;html=1;fillColor=#f8cecc;strokeColor=#b85450;" vertex="1" parent="1">
          <mxGeometry x="240" y="780" width="40" height="20" as="geometry" />
        </mxCell>
        <mxCell id="DYfATxnQDK458sTT8Pim-131" style="edgeStyle=orthogonalEdgeStyle;rounded=0;orthogonalLoop=1;jettySize=auto;html=1;entryX=0;entryY=0.5;entryDx=0;entryDy=0;endArrow=none;endFill=0;" edge="1" parent="1" source="DYfATxnQDK458sTT8Pim-130" target="DYfATxnQDK458sTT8Pim-129">
          <mxGeometry relative="1" as="geometry">
            <Array as="points">
              <mxPoint x="200" y="790" />
            </Array>
          </mxGeometry>
        </mxCell>
        <mxCell id="DYfATxnQDK458sTT8Pim-130" value="" style="shape=stencil(tZRNDoIwEIVP063pj7g3qPcoOEojtKRU1NtbqBgr1CjChmTey3y8ZqZFLK4yXgKiOENsgyil2H5sefFLXpWQGqfVXAue5OCcymh1govYmwdByAy0MI3LtgivUcPAiMWpktJChJKV57z4FsaFtL346mCP39+8qrT8AgxopxKnIrr7HruI5gGTmfL62C795HmnA/uJyVyDmwxMxmNZbJXQcrM44enpqNVZ7vtdQe+gNAwYT1vkubt4H45Z8uZK9ozOLlQNL+cfvGnD6I6QCxkmRL8Tlv8C3iIQOgKxmjjER0K7BIE52ac5NOG2rbcireqe81a4Aw==);whiteSpace=wrap;html=1;" vertex="1" parent="1">
          <mxGeometry x="190" y="800" width="20" height="20" as="geometry" />
        </mxCell>
      </root>
    </mxGraphModel>
  </diagram>
</mxfile>
